<svg width="23" height="22" viewBox="0 0 23 22" fill="none" xmlns="http://www.w3.org/2000/svg">
<g clip-path="url(#clip0_814_300)">
<path d="M20.0665 17.5558C21.4294 15.7709 22.168 13.623 22.168 11.3828C22.168 5.57991 17.2482 0.883301 11.168 0.883301C5.08839 0.883301 0.167969 5.57927 0.167969 11.3828C0.167969 13.6223 0.906158 15.7696 2.26823 17.5542C6.65675 11.7922 15.6718 11.787 20.0665 17.5558ZM7.30078 7.07634C7.30078 5.0411 9.03564 3.38509 11.168 3.38509C13.3003 3.38509 15.0352 5.0411 15.0352 7.07634V8.30681C15.0352 10.3422 13.3003 11.9981 11.168 11.9981C9.03564 11.9981 7.30078 10.3422 7.30078 8.30681V7.07634Z" fill="white"/>
<path d="M11.168 10.7675C12.5896 10.7675 13.7461 9.6636 13.7461 8.30672V7.07626C13.7461 5.71938 12.5896 4.61548 11.168 4.61548C9.74631 4.61548 8.58984 5.71938 8.58984 7.07626V8.30672C8.58984 9.6636 9.74631 10.7675 11.168 10.7675Z" fill="white"/>
<path d="M3.12207 18.5417C7.47434 22.996 14.8598 22.9994 19.2161 18.5386C15.3757 13.092 6.98305 13.1169 3.12207 18.5417Z" fill="white"/>
</g>
<defs>
<clipPath id="clip0_814_300">
<rect width="22" height="21" fill="white" transform="translate(0.167969 0.883301)"/>
</clipPath>
</defs>
</svg>
