<svg width="19" height="18" viewBox="0 0 19 18" fill="none" xmlns="http://www.w3.org/2000/svg">
<g clip-path="url(#clip0_814_293)">
<path d="M16.6142 15.0263L15.3264 12.9991C14.7317 12.0634 14.4174 10.9916 14.4174 9.9008V8.125C14.4174 5.88313 12.8334 3.98693 10.6674 3.37563V2.10418C10.6674 1.32288 9.99468 0.6875 9.16742 0.6875C8.34016 0.6875 7.66741 1.32288 7.66741 2.10418V3.37563C5.50143 3.98693 3.91743 5.88313 3.91743 8.125V9.9008C3.91743 10.9916 3.60317 12.0626 3.00917 12.9984L1.72144 15.0256C1.65169 15.1354 1.65017 15.2714 1.71694 15.3826C1.7837 15.4938 1.90745 15.5625 2.04245 15.5625H16.2924C16.4274 15.5625 16.5519 15.4938 16.6187 15.3833C16.6854 15.2728 16.6832 15.1354 16.6142 15.0263Z" fill="white"/>
<path d="M6.80566 16.2708C7.22866 17.1052 8.12416 17.6874 9.16739 17.6874C10.2106 17.6874 11.1062 17.1052 11.5292 16.2708H6.80566Z" fill="white"/>
</g>
<defs>
<clipPath id="clip0_814_293">
<rect width="18" height="17" fill="white" transform="translate(0.167969 0.6875)"/>
</clipPath>
</defs>
</svg>
