<svg width="21" height="20" viewBox="0 0 21 20" fill="none" xmlns="http://www.w3.org/2000/svg">
<g clip-path="url(#clip0_814_304)">
<path d="M17.2826 0.512556C16.9786 0.379484 16.6203 0.431267 16.3717 0.644147L15.0595 1.74784C15.0238 1.77803 14.97 1.77785 14.9345 1.74749L13.1492 0.230558C12.8263 -0.0443004 12.3375 -0.0443004 12.0146 0.230558L10.2309 1.74609C10.195 1.77654 10.1408 1.77654 10.1049 1.74609L8.32102 0.230558C7.99813 -0.0442555 7.50931 -0.0442555 7.18642 0.230558L5.40088 1.74749C5.36514 1.77785 5.31115 1.77798 5.27522 1.7478L3.96192 0.644147C3.6135 0.349797 3.07986 0.379484 2.77002 0.710481C2.63108 0.858913 2.55506 1.05104 2.55667 1.24964V17.7992C2.55355 18.2429 2.92957 18.6049 3.39656 18.6079C3.60575 18.6092 3.80799 18.5368 3.96428 18.4047L5.27641 17.301C5.3121 17.2708 5.36595 17.271 5.40145 17.3014L7.18675 18.8183C7.50964 19.0932 7.99846 19.0932 8.32135 18.8183L10.1052 17.3028C10.1411 17.2723 10.1953 17.2723 10.2312 17.3028L12.0151 18.8183C12.338 19.093 12.8268 19.093 13.1497 18.8183L14.9353 17.3013C14.9711 17.271 15.0251 17.2708 15.061 17.301L16.3743 18.4047C16.7229 18.6989 17.2565 18.669 17.5662 18.3379C17.7049 18.1896 17.7808 17.9977 17.7793 17.7992V1.24964C17.7837 0.931715 17.5884 0.641811 17.2826 0.512556ZM5.68661 6.47046H10.3946C10.6034 6.47046 10.7728 6.63133 10.7728 6.82975C10.7728 7.02817 10.6034 7.18904 10.3946 7.18904H5.68661C5.47775 7.18904 5.30841 7.02817 5.30841 6.82975C5.30841 6.63133 5.47775 6.47046 5.68661 6.47046ZM14.6493 12.5784H5.68661C5.47775 12.5784 5.30841 12.4175 5.30841 12.2191C5.30841 12.0207 5.47775 11.8598 5.68661 11.8598H14.6493C14.8582 11.8598 15.0275 12.0207 15.0275 12.2191C15.0275 12.4175 14.8582 12.5784 14.6493 12.5784ZM14.6493 9.88373H5.68661C5.47775 9.88373 5.30841 9.72286 5.30841 9.52444C5.30841 9.32602 5.47775 9.16515 5.68661 9.16515H14.6493C14.8582 9.16515 15.0275 9.32602 15.0275 9.52444C15.0275 9.72286 14.8582 9.88373 14.6493 9.88373Z" fill="white"/>
</g>
<defs>
<clipPath id="clip0_814_304">
<rect width="20" height="19" fill="white" transform="translate(0.167969 0.0244141)"/>
</clipPath>
</defs>
</svg>
