<svg width="43" height="41" viewBox="0 0 43 41" fill="none" xmlns="http://www.w3.org/2000/svg">
<path d="M9.62069 16.1553C9.62069 12.8744 12.281 10.2144 15.5616 10.2144C18.1331 10.2144 20.3499 11.8993 21.1478 14.2045L28.3746 6.97768L24.9164 3.5195C24.5175 3.12055 23.8523 3.12055 23.4534 3.5195L21.7685 5.20433C20.8819 4.71662 19.9507 4.3177 18.931 4.05168L18.9313 1.6574C18.9313 1.03671 18.4436 0.593262 17.8672 0.593262H13.2564C12.6358 0.593262 12.1923 1.03675 12.1923 1.6574V4.05137C11.1727 4.31733 10.2415 4.71628 9.35483 5.20402L7.66999 3.51918C7.27105 3.12023 6.60586 3.12023 6.20692 3.51918L2.97049 6.75561C2.57154 7.15456 2.57154 7.81974 2.97049 8.21869L4.65533 9.90352C4.16762 10.7902 3.76869 11.7214 3.50268 12.741L1.06414 12.7413C0.443452 12.7413 0 13.229 0 13.8055V18.372C0 18.9927 0.443484 19.4362 1.06414 19.4362H3.4581C3.72407 20.4558 4.12301 21.387 4.61075 22.2736L2.92592 23.9585C2.48243 24.3574 2.52697 25.0226 2.92592 25.4216L6.3841 28.8797L13.6109 21.653C11.2611 20.9432 9.62084 18.7264 9.62084 16.1552L9.62069 16.1553Z" fill="#377C96"/>
<path d="M13.4214 27.9652L29.2215 12.165L36.0244 18.9679L20.2242 34.768L13.4214 27.9652Z" fill="#377C96"/>
<path d="M41.6758 11.3231L36.9321 6.53488C36.3556 5.95842 35.469 5.95842 34.8925 6.53488L31.7891 9.6383L38.6166 16.4658L41.72 13.3624C42.2523 12.7863 42.2523 11.8554 41.6758 11.3231H41.6758Z" fill="#377C96"/>
<path d="M9.13308 32.2934C8.95587 32.4706 8.82258 32.7369 8.73413 33.0028L7.31523 39.1652C7.09349 40.1848 8.02467 41.116 9.04432 40.8943L15.207 39.4754C15.4729 39.4311 15.6947 39.2981 15.9164 39.0764L17.6897 37.3031L10.9066 30.5198L9.13308 32.2934Z" fill="#377C96"/>
</svg>
