<svg width="13" height="16" viewBox="0 0 13 16" fill="none" xmlns="http://www.w3.org/2000/svg">
<path d="M0.00240067 11.9063C0.0336094 11.6735 0.0576162 11.4382 0.0984276 11.2077C0.412916 9.51526 1.29636 8.19249 2.69836 7.19621C3.66823 8.11567 4.81095 8.6006 6.14572 8.5982C7.4757 8.5982 8.61602 8.11807 9.59549 7.19141C9.78995 7.34505 9.994 7.49149 10.1813 7.65714C11.3624 8.70623 12.0586 10.0146 12.2482 11.587C12.2602 11.6927 12.277 11.8007 12.2914 11.9063C12.2914 12.0336 12.2914 12.1632 12.2914 12.2904C10.3709 16.1315 2.69836 16.1315 0 12.2904C0.00240067 12.1632 0.00240067 12.0336 0.00240067 11.9063Z" fill="#484848"/>
<path d="M6.43599 0C6.67846 0.0480135 6.92573 0.0792222 7.161 0.146441C8.6014 0.547354 9.6673 1.82211 9.81614 3.31293C10.0226 5.37991 8.50538 7.19482 6.42879 7.36527C4.55867 7.52131 2.83739 6.18894 2.5205 4.33802C2.1796 2.35986 3.41595 0.516145 5.3773 0.0816229C5.53574 0.0456128 5.69899 0.0264074 5.85983 0C6.05189 0 6.24394 0 6.43599 0Z" fill="#484848"/>
</svg>
