<svg width="75" height="75" viewBox="0 0 75 75" fill="none" xmlns="http://www.w3.org/2000/svg">
<path d="M30.7661 31.8983C29.8697 31.0019 26.0603 30.7779 24.8278 30.6658C24.7157 30.6658 24.6037 30.6658 24.4916 30.7778C24.3796 30.8899 24.2676 31.114 24.2676 31.226V41.31C24.2676 41.6461 24.4917 41.8702 24.8278 41.8702H28.1891C28.4132 41.8702 28.6373 41.7582 28.7494 41.5341C28.7494 41.1979 30.7662 35.2596 30.9903 32.3465C30.9902 32.2344 30.9902 32.0103 30.7661 31.8983Z" fill="#B9B9B9"/>
<path d="M42.7542 34.5869C41.6337 34.2508 40.6253 33.8026 39.729 33.4665C37.7122 32.5701 36.8158 33.0183 35.0231 34.811C34.2388 35.5953 33.6786 36.7158 33.7906 37.1639C33.7906 37.276 33.7906 37.276 34.0147 37.388C34.575 37.6121 35.3593 37.7242 36.1436 36.4917C36.2556 36.3796 36.3677 36.2676 36.5917 36.2676C36.9278 36.2676 37.0399 36.1555 37.376 36.0435C37.6001 35.9314 37.8242 35.8194 38.1603 35.7073C38.2723 35.7073 38.2723 35.7073 38.3844 35.7073C38.4964 35.7073 38.7205 35.8194 38.8326 35.8194C39.3928 36.3796 40.4012 37.1639 41.4096 38.0603C42.9783 39.2928 44.5468 40.6373 45.3312 41.6457H45.4432C44.6589 39.4048 43.3144 35.5953 42.7542 34.5869Z" fill="#B9B9B9"/>
<path d="M50.5993 31.7866C46.2296 31.7866 43.7646 32.907 43.6525 32.907C43.5405 33.0191 43.4284 33.1311 43.3164 33.2432C43.3164 33.3552 43.3164 33.5793 43.4284 33.6913C44.1007 34.8118 46.3416 40.9742 46.6777 42.5428C46.7897 42.7669 47.0139 42.9909 47.238 42.9909H50.5993C50.9354 42.9909 51.1595 42.7668 51.1595 42.4307V32.3468C51.1595 32.0107 50.9354 31.7866 50.5993 31.7866Z" fill="#B9B9B9"/>
<path d="M44.5483 42.7668C44.1002 41.7584 42.1954 40.3018 40.5148 38.9573C39.6184 38.1729 38.7221 37.5007 38.0498 36.9404C37.9378 37.0525 37.7137 37.0525 37.7137 37.1646C37.3775 37.2766 37.2655 37.3887 36.8173 37.3887C35.921 38.5091 34.8005 38.9572 33.5681 38.5091C33.0078 38.3971 32.6717 37.9488 32.5597 37.5007C32.3356 36.3803 33.344 34.8116 34.1283 34.0273H31.8874C31.4393 36.2682 30.6549 39.1813 30.0947 40.75C30.5429 41.1981 30.9911 41.7584 31.3272 41.9825C33.456 43.7752 35.921 45.5679 36.3692 45.904C36.7053 46.1281 37.3776 46.3522 37.7137 46.3522C37.8258 46.3522 37.9378 46.3522 38.0499 46.3522L36.2571 44.5594C36.033 44.3353 36.033 43.9992 36.2571 43.7752C36.4812 43.5511 36.8174 43.5511 37.0414 43.7752L39.2823 46.0161C39.5064 46.2402 39.7305 46.1281 39.9546 46.1281C40.2907 46.0161 40.4027 45.7919 40.5148 45.4558L37.9378 42.8788C37.7137 42.6547 37.7137 42.3186 37.9378 42.0945C38.1619 41.8704 38.498 41.8704 38.7221 42.0945L41.5231 44.8956C41.6352 45.0076 42.0834 45.0076 42.4195 44.8956C42.5315 44.7836 42.7556 44.6715 42.8677 44.4474L39.7305 41.3102C39.5064 41.0861 39.5064 40.7499 39.7305 40.5259C39.9546 40.3018 40.2907 40.3018 40.5148 40.5259L43.764 43.7752C43.9881 43.8872 44.2122 43.7752 44.4363 43.6631C44.5483 43.5511 44.7724 43.2149 44.5483 42.7668Z" fill="#B9B9B9"/>
<circle cx="37.7122" cy="37.5838" r="36.554" stroke="#B9B9B9"/>
</svg>
