<svg width="12" height="28" viewBox="0 0 12 28" fill="none" xmlns="http://www.w3.org/2000/svg">
<path d="M10.8884 8.0996L8.64561 3.74857C8.47172 3.41126 8.01895 3.13525 7.63944 3.13525H4.82183C4.44231 3.13525 3.98954 3.41126 3.81565 3.74863L1.57284 8.09965C1.44926 8.33938 1.34196 8.6917 1.29004 9.00054H11.1712C11.1193 8.6917 11.012 8.33938 10.8884 8.0996Z" fill="#F28742"/>
<path d="M1.25684 26.7681C1.25684 27.1476 1.56735 27.4582 1.94686 27.4582H10.5147C10.8942 27.4582 11.2047 27.1476 11.2047 26.7681V19.8391H1.25684V26.7681Z" fill="#F28742"/>
<path d="M4.64999 2.61724H7.81261C8.19213 2.61724 8.50264 2.30673 8.50264 1.92722V0.892176C8.50264 0.512661 8.19213 0.202148 7.81261 0.202148H4.64999C4.27047 0.202148 3.95996 0.512661 3.95996 0.892176V1.92722C3.95996 2.30673 4.27047 2.61724 4.64999 2.61724Z" fill="#F28742"/>
<path d="M11.4062 12.6227C11.5168 12.6227 11.6074 12.3122 11.6074 11.9327V10.6677C11.6074 10.4619 11.5806 10.2769 11.5386 10.1501H0.923323C0.881289 10.2769 0.854492 10.4619 0.854492 10.6677V11.9327C0.854492 12.3122 0.945058 12.6227 1.05575 12.6227C1.16644 12.6227 1.25701 12.7327 1.25701 12.8671C1.25701 13.0015 1.16644 13.1115 1.05575 13.1115C0.945058 13.1115 0.854492 13.422 0.854492 13.8015V15.0666C0.854492 15.4461 0.945058 15.7566 1.05575 15.7566C1.16644 15.7566 1.25701 15.8666 1.25701 16.001C1.25701 16.1354 1.16644 16.2454 1.05575 16.2454C0.945058 16.2454 0.854492 16.5559 0.854492 16.9354V18.2005C0.854492 18.391 0.877378 18.564 0.914064 18.6892H11.5478C11.5846 18.564 11.6074 18.391 11.6074 18.2005V16.9354C11.6074 16.5559 11.5168 16.2454 11.4062 16.2454C11.2955 16.2454 11.2049 16.1354 11.2049 16.001C11.2049 15.8666 11.2955 15.7566 11.4062 15.7566C11.5168 15.7566 11.6074 15.4461 11.6074 15.0666V13.8015C11.6074 13.422 11.5168 13.1115 11.4062 13.1115C11.2955 13.1115 11.2049 13.0015 11.2049 12.8671C11.2049 12.7327 11.2955 12.6227 11.4062 12.6227ZM6.06564 17.1639C4.86528 17.1639 3.89222 16.1908 3.89222 14.9905C3.89222 13.7901 6.06564 11.3002 6.06564 11.3002C6.06564 11.3002 8.23905 13.7901 8.23905 14.9905C8.23905 16.1908 7.266 17.1639 6.06564 17.1639Z" fill="#F28742"/>
</svg>
