<svg width="132" height="16" viewBox="0 0 132 16" fill="none" xmlns="http://www.w3.org/2000/svg">
<path d="M29.4177 3.9H33.2527C34.2147 3.9 35.0684 4.09067 35.8137 4.472C36.5591 4.85333 37.1354 5.39067 37.5427 6.084C37.9587 6.76867 38.1667 7.55733 38.1667 8.45C38.1667 9.34267 37.9587 10.1357 37.5427 10.829C37.1354 11.5137 36.5591 12.0467 35.8137 12.428C35.0684 12.8093 34.2147 13 33.2527 13H29.4177V3.9ZM33.1747 11.869C33.9114 11.869 34.5571 11.726 35.1117 11.44C35.6751 11.154 36.1084 10.7553 36.4117 10.244C36.7151 9.724 36.8667 9.126 36.8667 8.45C36.8667 7.774 36.7151 7.18033 36.4117 6.669C36.1084 6.149 35.6751 5.746 35.1117 5.46C34.5571 5.174 33.9114 5.031 33.1747 5.031H30.7177V11.869H33.1747ZM46.203 9.594C46.203 9.68933 46.1943 9.815 46.177 9.971H40.587C40.665 10.5777 40.9293 11.0673 41.38 11.44C41.8393 11.804 42.407 11.986 43.083 11.986C43.9063 11.986 44.5693 11.7087 45.072 11.154L45.761 11.96C45.449 12.324 45.059 12.6013 44.591 12.792C44.1316 12.9827 43.616 13.078 43.044 13.078C42.316 13.078 41.6703 12.9307 41.107 12.636C40.5436 12.3327 40.106 11.9123 39.794 11.375C39.4906 10.8377 39.339 10.231 39.339 9.555C39.339 8.88767 39.4863 8.28533 39.781 7.748C40.0843 7.21067 40.496 6.79467 41.016 6.5C41.5446 6.19667 42.1383 6.045 42.797 6.045C43.4556 6.045 44.0406 6.19667 44.552 6.5C45.072 6.79467 45.475 7.21067 45.761 7.748C46.0556 8.28533 46.203 8.90067 46.203 9.594ZM42.797 7.098C42.199 7.098 41.6963 7.28 41.289 7.644C40.8903 8.008 40.6563 8.48467 40.587 9.074H45.007C44.9376 8.49333 44.6993 8.021 44.292 7.657C43.8933 7.28433 43.395 7.098 42.797 7.098ZM54.3579 6.11V13H53.1749V11.96C52.9236 12.3153 52.5899 12.5927 52.1739 12.792C51.7666 12.9827 51.3203 13.078 50.8349 13.078C49.9163 13.078 49.1926 12.8267 48.6639 12.324C48.1353 11.8127 47.8709 11.063 47.8709 10.075V6.11H49.1189V9.932C49.1189 10.5993 49.2793 11.1063 49.5999 11.453C49.9206 11.791 50.3799 11.96 50.9779 11.96C51.6366 11.96 52.1566 11.7607 52.5379 11.362C52.9193 10.9633 53.1099 10.4 53.1099 9.672V6.11H54.3579ZM60.6078 12.597C60.4258 12.753 60.2004 12.8743 59.9318 12.961C59.6631 13.039 59.3858 13.078 59.0998 13.078C58.4064 13.078 57.8691 12.8917 57.4878 12.519C57.1064 12.1463 56.9158 11.6133 56.9158 10.92V7.137H55.7458V6.11H56.9158V4.602H58.1638V6.11H60.1398V7.137H58.1638V10.868C58.1638 11.2407 58.2548 11.5267 58.4368 11.726C58.6274 11.9253 58.8961 12.025 59.2428 12.025C59.6241 12.025 59.9491 11.9167 60.2178 11.7L60.6078 12.597ZM64.0926 13.078C63.5293 13.078 62.9876 13.0043 62.4676 12.857C61.9476 12.701 61.5403 12.506 61.2456 12.272L61.7656 11.284C62.0689 11.5007 62.4373 11.674 62.8706 11.804C63.3039 11.934 63.7416 11.999 64.1836 11.999C65.2756 11.999 65.8216 11.687 65.8216 11.063C65.8216 10.855 65.7479 10.6903 65.6006 10.569C65.4533 10.4477 65.2669 10.361 65.0416 10.309C64.8249 10.2483 64.5129 10.1833 64.1056 10.114C63.5509 10.0273 63.0959 9.92767 62.7406 9.815C62.3939 9.70233 62.0949 9.51167 61.8436 9.243C61.5923 8.97433 61.4666 8.59733 61.4666 8.112C61.4666 7.488 61.7266 6.98967 62.2466 6.617C62.7666 6.23567 63.4643 6.045 64.3396 6.045C64.7989 6.045 65.2583 6.10133 65.7176 6.214C66.1769 6.32667 66.5539 6.47833 66.8486 6.669L66.3156 7.657C65.7523 7.293 65.0893 7.111 64.3266 7.111C63.7979 7.111 63.3949 7.19767 63.1176 7.371C62.8403 7.54433 62.7016 7.774 62.7016 8.06C62.7016 8.28533 62.7796 8.463 62.9356 8.593C63.0916 8.723 63.2823 8.81833 63.5076 8.879C63.7416 8.93967 64.0666 9.009 64.4826 9.087C65.0373 9.18233 65.4836 9.28633 65.8216 9.399C66.1683 9.503 66.4629 9.685 66.7056 9.945C66.9483 10.205 67.0696 10.569 67.0696 11.037C67.0696 11.661 66.8009 12.1593 66.2636 12.532C65.7349 12.896 65.0113 13.078 64.0926 13.078ZM71.6323 13.078C70.9303 13.078 70.302 12.9263 69.7473 12.623C69.2013 12.3197 68.7723 11.9037 68.4603 11.375C68.1483 10.8377 67.9923 10.231 67.9923 9.555C67.9923 8.879 68.1483 8.27667 68.4603 7.748C68.7723 7.21067 69.2013 6.79467 69.7473 6.5C70.302 6.19667 70.9303 6.045 71.6323 6.045C72.2563 6.045 72.811 6.17067 73.2963 6.422C73.7903 6.67333 74.1716 7.03733 74.4403 7.514L73.4913 8.125C73.2746 7.79567 73.006 7.54867 72.6853 7.384C72.3646 7.21933 72.0093 7.137 71.6193 7.137C71.1686 7.137 70.7613 7.23667 70.3973 7.436C70.042 7.63533 69.7603 7.92133 69.5523 8.294C69.353 8.658 69.2533 9.07833 69.2533 9.555C69.2533 10.0403 69.353 10.4693 69.5523 10.842C69.7603 11.206 70.042 11.4877 70.3973 11.687C70.7613 11.8863 71.1686 11.986 71.6193 11.986C72.0093 11.986 72.3646 11.9037 72.6853 11.739C73.006 11.5743 73.2746 11.3273 73.4913 10.998L74.4403 11.596C74.1716 12.0727 73.7903 12.441 73.2963 12.701C72.811 12.9523 72.2563 13.078 71.6323 13.078ZM79.6462 6.045C80.5215 6.045 81.2148 6.30067 81.7262 6.812C82.2462 7.31467 82.5062 8.05567 82.5062 9.035V13H81.2582V9.178C81.2582 8.51067 81.0978 8.008 80.7772 7.67C80.4565 7.332 79.9972 7.163 79.3992 7.163C78.7232 7.163 78.1902 7.36233 77.8002 7.761C77.4102 8.151 77.2152 8.71433 77.2152 9.451V13H75.9672V3.354H77.2152V7.085C77.4752 6.75567 77.8132 6.5 78.2292 6.318C78.6538 6.136 79.1262 6.045 79.6462 6.045Z" fill="#161616"/>
<path d="M110.969 11.869V13H104.365V3.9H110.787V5.031H105.665V7.826H110.228V8.931H105.665V11.869H110.969ZM116.844 13.104C115.631 13.104 114.686 12.7573 114.01 12.064C113.334 11.3707 112.996 10.374 112.996 9.074V3.9H114.296V9.022C114.296 10.972 115.15 11.947 116.857 11.947C117.689 11.947 118.326 11.7087 118.768 11.232C119.21 10.7467 119.431 10.01 119.431 9.022V3.9H120.692V9.074C120.692 10.3827 120.354 11.3837 119.678 12.077C119.002 12.7617 118.057 13.104 116.844 13.104ZM129.441 13L127.478 10.205C127.236 10.2223 127.045 10.231 126.906 10.231H124.657V13H123.357V3.9H126.906C128.085 3.9 129.012 4.18167 129.688 4.745C130.364 5.30833 130.702 6.084 130.702 7.072C130.702 7.774 130.529 8.372 130.182 8.866C129.836 9.36 129.342 9.71967 128.7 9.945L130.858 13H129.441ZM126.867 9.126C127.691 9.126 128.319 8.94833 128.752 8.593C129.186 8.23767 129.402 7.73067 129.402 7.072C129.402 6.41333 129.186 5.91067 128.752 5.564C128.319 5.20867 127.691 5.031 126.867 5.031H124.657V9.126H126.867Z" fill="#161616"/>
<path d="M92.586 3.354H93.197V15.522H92.586V3.354Z" fill="#161616"/>
<path d="M20.4491 1H1.65547C0.741152 1 0 1.74115 0 2.65547V13.8269C0 14.7412 0.741152 15.4824 1.65547 15.4824H20.4491C21.3634 15.4824 22.1046 14.7412 22.1046 13.8269V2.65547C22.1046 1.74115 21.3634 1 20.4491 1Z" fill="#F5F5F5"/>
<path d="M0.0924072 2.11404H22.0149C21.7905 1.46571 21.1751 1 20.4505 1H1.65683C0.932209 1 0.316777 1.46571 0.0924072 2.11404Z" fill="#FF4B55"/>
<path d="M22.1059 5.45605H0.00134277V6.57005H22.1059V5.45605Z" fill="#FF4B55"/>
<path d="M22.1059 3.22778H0.00134277V4.34178H22.1059V3.22778Z" fill="#FF4B55"/>
<path d="M0.00134277 8.41674C0.00134277 8.62721 0.172006 8.79787 0.382474 8.79787H22.1059V7.68384H0.00134277V8.41674Z" fill="#FF4B55"/>
<path d="M22.1059 12.1406H0.00134277V13.2547H22.1059V12.1406Z" fill="#FF4B55"/>
<path d="M22.0149 14.3679H0.0924072C0.316777 15.0162 0.932252 15.482 1.65683 15.482H20.4505C21.1751 15.482 21.7905 15.0162 22.0149 14.3679Z" fill="#FF4B55"/>
<path d="M22.1059 9.9126H0.00134277V11.0266H22.1059V9.9126Z" fill="#FF4B55"/>
<path d="M0.381132 8.79822H9.90899C10.1195 8.79822 10.2901 8.62755 10.2901 8.41709V1.38113C10.2901 1.17062 10.1195 1 9.90899 1H1.65547C0.741152 1.00004 0 1.74119 0 2.65551V8.41709C0 8.6276 0.170663 8.79822 0.381132 8.79822Z" fill="#41479B"/>
<path d="M1.07018 1.8754L1.15454 2.1284L1.42122 2.13042C1.45576 2.13073 1.47005 2.17476 1.44229 2.19527L1.22776 2.35367L1.30824 2.60792C1.31869 2.64082 1.28117 2.6681 1.25306 2.64798L1.03612 2.49295L0.819174 2.64803C0.791068 2.66814 0.753637 2.64086 0.763999 2.60796L0.844473 2.35371L0.629947 2.19531C0.602186 2.17476 0.616477 2.13073 0.651015 2.13047L0.917695 2.12844L1.00205 1.87544C1.01293 1.84263 1.05922 1.84263 1.07018 1.8754Z" fill="#F5F5F5"/>
<path d="M1.07006 3.19837L1.15442 3.45136L1.4211 3.45339C1.45564 3.45369 1.46993 3.49769 1.44217 3.51824L1.22764 3.67668L1.30812 3.93093C1.31856 3.96382 1.28105 3.99111 1.25294 3.97099L1.036 3.81596L0.819052 3.97103C0.790946 3.99111 0.753515 3.96387 0.763877 3.93097L0.844351 3.67672L0.629824 3.51828C0.602064 3.49773 0.616354 3.45374 0.650893 3.45343L0.917573 3.4514L1.00193 3.19841C1.01281 3.16564 1.05909 3.16564 1.07006 3.19837Z" fill="#F5F5F5"/>
<path d="M1.07006 4.52189L1.15442 4.77488L1.4211 4.77691C1.45564 4.77721 1.46993 4.8212 1.44217 4.84175L1.22764 5.0002L1.30812 5.25445C1.31856 5.28734 1.28105 5.31463 1.25294 5.29451L1.036 5.13948L0.819052 5.29455C0.790946 5.31463 0.753515 5.28743 0.763877 5.25449L0.844351 5.00024L0.629824 4.8418C0.602064 4.82125 0.616354 4.77725 0.650893 4.77695L0.917573 4.77492L1.00193 4.52193C1.01281 4.48912 1.05909 4.48912 1.07006 4.52189Z" fill="#F5F5F5"/>
<path d="M1.07006 5.84537L1.15442 6.09837L1.4211 6.10039C1.45564 6.1007 1.46993 6.14473 1.44217 6.16524L1.22764 6.32368L1.30812 6.57793C1.31856 6.61083 1.28105 6.63811 1.25294 6.618L1.036 6.46296L0.819052 6.61804C0.790946 6.63811 0.753515 6.61087 0.763877 6.57797L0.844351 6.32373L0.629824 6.16528C0.602064 6.14482 0.616354 6.10074 0.650893 6.10044L0.917573 6.09841L1.00193 5.84541C1.01281 5.8126 1.05909 5.8126 1.07006 5.84537Z" fill="#F5F5F5"/>
<path d="M1.07006 7.16907L1.15442 7.42206L1.4211 7.42409C1.45564 7.4244 1.46993 7.46839 1.44217 7.48894L1.22764 7.64738L1.30812 7.90163C1.31856 7.93453 1.28105 7.96181 1.25294 7.94169L1.036 7.78666L0.819052 7.94174C0.790946 7.96181 0.753515 7.93457 0.763877 7.90167L0.844351 7.64743L0.629824 7.48898C0.602064 7.46843 0.616354 7.42444 0.650893 7.42414L0.917573 7.42211L1.00193 7.16911C1.01281 7.13634 1.05909 7.13634 1.07006 7.16907Z" fill="#F5F5F5"/>
<path d="M2.09753 2.52357L2.18189 2.77656L2.44857 2.77859C2.4831 2.77889 2.49739 2.82293 2.46963 2.84344L2.25511 3.00188L2.33558 3.25613C2.34603 3.28903 2.30851 3.31631 2.28041 3.29619L2.06346 3.14111L1.84652 3.29619C1.81841 3.31627 1.78098 3.28903 1.79134 3.25613L1.87182 3.00188L1.65729 2.84344C1.62953 2.82289 1.64382 2.77889 1.67836 2.77859L1.94504 2.77656L2.0294 2.52357C2.04028 2.49084 2.0866 2.49084 2.09753 2.52357Z" fill="#F5F5F5"/>
<path d="M2.09753 3.84733L2.18189 4.10032L2.44857 4.10235C2.4831 4.10266 2.49739 4.14669 2.46963 4.1672L2.25511 4.32564L2.33558 4.57989C2.34603 4.61279 2.30851 4.64007 2.28041 4.61996L2.06346 4.46488L1.84652 4.61996C1.81841 4.64003 1.78098 4.61283 1.79134 4.57989L1.87182 4.32564L1.65729 4.1672C1.62953 4.14674 1.64382 4.10266 1.67836 4.10235L1.94504 4.10032L2.0294 3.84733C2.04028 3.81456 2.0866 3.81456 2.09753 3.84733Z" fill="#F5F5F5"/>
<path d="M2.09753 5.17082L2.18189 5.42381L2.44857 5.42584C2.4831 5.42614 2.49739 5.47013 2.46963 5.49069L2.25511 5.64913L2.33558 5.90338C2.34603 5.93627 2.30851 5.96356 2.28041 5.94344L2.06346 5.78836L1.84652 5.94344C1.81841 5.96352 1.78098 5.93627 1.79134 5.90338L1.87182 5.64913L1.65729 5.49069C1.62953 5.47013 1.64382 5.42614 1.67836 5.42584L1.94504 5.42381L2.0294 5.17082C2.04028 5.13805 2.0866 5.13805 2.09753 5.17082Z" fill="#F5F5F5"/>
<path d="M2.09753 6.49403L2.18189 6.74702L2.44857 6.74905C2.4831 6.74935 2.49739 6.79334 2.46963 6.8139L2.25511 6.97234L2.33558 7.22659C2.34603 7.25948 2.30851 7.28677 2.28041 7.26665L2.06346 7.11157L1.84652 7.26665C1.81841 7.28677 1.78098 7.25948 1.79134 7.22659L1.87182 6.97234L1.65729 6.8139C1.62953 6.79334 1.64382 6.74935 1.67836 6.74905L1.94504 6.74702L2.0294 6.49403C2.04028 6.4613 2.0866 6.4613 2.09753 6.49403Z" fill="#F5F5F5"/>
<path d="M3.12493 1.87492L3.20929 2.12791L3.47597 2.12994C3.51051 2.13024 3.5248 2.17428 3.49704 2.19479L3.28251 2.35319L3.36299 2.60743C3.37343 2.64033 3.33592 2.66762 3.30781 2.6475L3.09087 2.49242L2.87392 2.6475C2.84582 2.66762 2.80839 2.64033 2.81875 2.60743L2.89922 2.35319L2.6847 2.19479C2.65693 2.17424 2.67123 2.1302 2.70576 2.12994L2.97244 2.12791L3.0568 1.87492C3.06768 1.84215 3.11401 1.84215 3.12493 1.87492Z" fill="#F5F5F5"/>
<path d="M3.12493 3.19837L3.20929 3.45137L3.47597 3.4534C3.51051 3.4537 3.5248 3.49769 3.49704 3.51824L3.28251 3.67669L3.36299 3.93093C3.37343 3.96383 3.33592 3.99112 3.30781 3.971L3.09087 3.81592L2.87392 3.971C2.84582 3.99107 2.80839 3.96383 2.81875 3.93093L2.89922 3.67669L2.6847 3.51824C2.65693 3.49769 2.67123 3.4537 2.70576 3.4534L2.97244 3.45137L3.0568 3.19837C3.06768 3.16565 3.11401 3.16565 3.12493 3.19837Z" fill="#F5F5F5"/>
<path d="M3.12493 4.52189L3.20929 4.77489L3.47597 4.77691C3.51051 4.77722 3.5248 4.82121 3.49704 4.84176L3.28251 5.00021L3.36299 5.25445C3.37343 5.28735 3.33592 5.31464 3.30781 5.29452L3.09087 5.13944L2.87392 5.29452C2.84582 5.31459 2.80839 5.28739 2.81875 5.25445L2.89922 5.00021L2.6847 4.84176C2.65693 4.82121 2.67123 4.77722 2.70576 4.77691L2.97244 4.77489L3.0568 4.52189C3.06768 4.48912 3.11401 4.48912 3.12493 4.52189Z" fill="#F5F5F5"/>
<path d="M3.12493 5.84538L3.20929 6.09837L3.47597 6.1004C3.51051 6.1007 3.5248 6.14474 3.49704 6.16525L3.28251 6.32369L3.36299 6.57794C3.37343 6.61083 3.33592 6.63812 3.30781 6.618L3.09087 6.46292L2.87392 6.618C2.84582 6.63808 2.80839 6.61083 2.81875 6.57794L2.89922 6.32369L2.6847 6.16525C2.65693 6.14478 2.67123 6.1007 2.70576 6.1004L2.97244 6.09837L3.0568 5.84538C3.06768 5.81261 3.11401 5.81261 3.12493 5.84538Z" fill="#F5F5F5"/>
<path d="M3.12493 7.16908L3.20929 7.42207L3.47597 7.4241C3.51051 7.4244 3.5248 7.46839 3.49704 7.48894L3.28251 7.64739L3.36299 7.90163C3.37343 7.93453 3.33592 7.96182 3.30781 7.9417L3.09087 7.78662L2.87392 7.9417C2.84582 7.96178 2.80839 7.93453 2.81875 7.90163L2.89922 7.64739L2.6847 7.48894C2.65693 7.46839 2.67123 7.4244 2.70576 7.4241L2.97244 7.42207L3.0568 7.16908C3.06768 7.13635 3.11401 7.13635 3.12493 7.16908Z" fill="#F5F5F5"/>
<path d="M4.15166 2.52357L4.23602 2.77656L4.5027 2.77859C4.53724 2.77889 4.55153 2.82293 4.52377 2.84344L4.30925 3.00188L4.38972 3.25613C4.40017 3.28903 4.36265 3.31631 4.33454 3.29619L4.1176 3.14111L3.90066 3.29619C3.87255 3.31627 3.83512 3.28903 3.84548 3.25613L3.92596 3.00188L3.71143 2.84344C3.68367 2.82289 3.69796 2.77889 3.7325 2.77859L3.99918 2.77656L4.08354 2.52357C4.09437 2.49084 4.14074 2.49084 4.15166 2.52357Z" fill="#F5F5F5"/>
<path d="M4.15166 3.84733L4.23602 4.10032L4.5027 4.10235C4.53724 4.10266 4.55153 4.14669 4.52377 4.1672L4.30925 4.32564L4.38972 4.57989C4.40017 4.61279 4.36265 4.64007 4.33454 4.61996L4.1176 4.46488L3.90066 4.61996C3.87255 4.64003 3.83512 4.61283 3.84548 4.57989L3.92596 4.32564L3.71143 4.1672C3.68367 4.14674 3.69796 4.10266 3.7325 4.10235L3.99918 4.10032L4.08354 3.84733C4.09437 3.81456 4.14074 3.81456 4.15166 3.84733Z" fill="#F5F5F5"/>
<path d="M4.15166 5.17082L4.23602 5.42381L4.5027 5.42584C4.53724 5.42614 4.55153 5.47013 4.52377 5.49069L4.30925 5.64913L4.38972 5.90338C4.40017 5.93627 4.36265 5.96356 4.33454 5.94344L4.1176 5.78836L3.90066 5.94344C3.87255 5.96352 3.83512 5.93627 3.84548 5.90338L3.92596 5.64913L3.71143 5.49069C3.68367 5.47013 3.69796 5.42614 3.7325 5.42584L3.99918 5.42381L4.08354 5.17082C4.09437 5.13805 4.14074 5.13805 4.15166 5.17082Z" fill="#F5F5F5"/>
<path d="M4.15166 6.49403L4.23602 6.74702L4.5027 6.74905C4.53724 6.74935 4.55153 6.79334 4.52377 6.8139L4.30925 6.97234L4.38972 7.22659C4.40017 7.25948 4.36265 7.28677 4.33454 7.26665L4.1176 7.11157L3.90066 7.26665C3.87255 7.28677 3.83512 7.25948 3.84548 7.22659L3.92596 6.97234L3.71143 6.8139C3.68367 6.79334 3.69796 6.74935 3.7325 6.74905L3.99918 6.74702L4.08354 6.49403C4.09437 6.4613 4.14074 6.4613 4.15166 6.49403Z" fill="#F5F5F5"/>
<path d="M5.17917 1.87491L5.26353 2.12791L5.53021 2.12994C5.56475 2.13024 5.57904 2.17427 5.55128 2.19478L5.33675 2.35318L5.41723 2.60743C5.42768 2.64033 5.39016 2.66761 5.36205 2.64749L5.14507 2.49246L4.92812 2.64754C4.90002 2.66766 4.86259 2.64037 4.87295 2.60747L4.95342 2.35323L4.73889 2.19482C4.71113 2.17427 4.72542 2.13024 4.75996 2.12998L5.02664 2.12795L5.111 1.87496C5.12193 1.84214 5.16825 1.84214 5.17917 1.87491Z" fill="#F5F5F5"/>
<path d="M5.17917 3.19837L5.26353 3.45137L5.53021 3.4534C5.56475 3.4537 5.57904 3.49769 5.55128 3.51824L5.33675 3.67669L5.41723 3.93093C5.42768 3.96383 5.39016 3.99112 5.36205 3.971L5.14507 3.81592L4.92812 3.971C4.90002 3.99107 4.86259 3.96383 4.87295 3.93093L4.95342 3.67669L4.73889 3.51824C4.71113 3.49769 4.72542 3.4537 4.75996 3.4534L5.02664 3.45137L5.111 3.19837C5.12193 3.16565 5.16825 3.16565 5.17917 3.19837Z" fill="#F5F5F5"/>
<path d="M5.17917 4.5219L5.26353 4.77489L5.53021 4.77692C5.56475 4.77722 5.57904 4.82122 5.55128 4.84177L5.33675 5.00021L5.41723 5.25446C5.42768 5.28735 5.39016 5.31464 5.36205 5.29452L5.14507 5.1394L4.92812 5.29448C4.90002 5.31455 4.86259 5.28731 4.87295 5.25441L4.95342 5.00017L4.73889 4.84172C4.71113 4.82117 4.72542 4.77718 4.75996 4.77688L5.02664 4.77485L5.111 4.52185C5.12193 4.48913 5.16825 4.48913 5.17917 4.5219Z" fill="#F5F5F5"/>
<path d="M5.17917 5.84538L5.26353 6.09837L5.53021 6.1004C5.56475 6.1007 5.57904 6.14474 5.55128 6.16525L5.33675 6.32369L5.41723 6.57794C5.42768 6.61083 5.39016 6.63812 5.36205 6.618L5.14507 6.46292L4.92812 6.618C4.90002 6.63808 4.86259 6.61083 4.87295 6.57794L4.95342 6.32369L4.73889 6.16525C4.71113 6.14478 4.72542 6.1007 4.75996 6.1004L5.02664 6.09837L5.111 5.84538C5.12193 5.81261 5.16825 5.81261 5.17917 5.84538Z" fill="#F5F5F5"/>
<path d="M5.17917 7.16908L5.26353 7.42207L5.53021 7.4241C5.56475 7.4244 5.57904 7.46839 5.55128 7.48894L5.33675 7.64739L5.41723 7.90163C5.42768 7.93453 5.39016 7.96182 5.36205 7.9417L5.14507 7.78662L4.92812 7.9417C4.90002 7.96178 4.86259 7.93453 4.87295 7.90163L4.95342 7.64739L4.73889 7.48894C4.71113 7.46839 4.72542 7.4244 4.75996 7.4241L5.02664 7.42207L5.111 7.16908C5.12193 7.13635 5.16825 7.13635 5.17917 7.16908Z" fill="#F5F5F5"/>
<path d="M6.20586 2.52357L6.29022 2.77656L6.5569 2.77859C6.59144 2.77889 6.60573 2.82293 6.57797 2.84344L6.36344 3.00188L6.44392 3.25613C6.45437 3.28903 6.41685 3.31631 6.38874 3.29619L6.1718 3.14111L5.95485 3.29619C5.92675 3.31627 5.88932 3.28903 5.89968 3.25613L5.98015 3.00188L5.76563 2.84344C5.73787 2.82289 5.75216 2.77889 5.7867 2.77859L6.05338 2.77656L6.13774 2.52357C6.14866 2.49084 6.19494 2.49084 6.20586 2.52357Z" fill="#F5F5F5"/>
<path d="M6.20586 3.84733L6.29022 4.10032L6.5569 4.10235C6.59144 4.10266 6.60573 4.14669 6.57797 4.1672L6.36344 4.32564L6.44392 4.57989C6.45437 4.61279 6.41685 4.64007 6.38874 4.61996L6.1718 4.46488L5.95485 4.61996C5.92675 4.64003 5.88932 4.61283 5.89968 4.57989L5.98015 4.32564L5.76563 4.1672C5.73787 4.14674 5.75216 4.10266 5.7867 4.10235L6.05338 4.10032L6.13774 3.84733C6.14866 3.81456 6.19494 3.81456 6.20586 3.84733Z" fill="#F5F5F5"/>
<path d="M6.20586 5.17082L6.29022 5.42381L6.5569 5.42584C6.59144 5.42614 6.60573 5.47013 6.57797 5.49069L6.36344 5.64913L6.44392 5.90338C6.45437 5.93627 6.41685 5.96356 6.38874 5.94344L6.1718 5.78836L5.95485 5.94344C5.92675 5.96352 5.88932 5.93627 5.89968 5.90338L5.98015 5.64913L5.76563 5.49069C5.73787 5.47013 5.75216 5.42614 5.7867 5.42584L6.05338 5.42381L6.13774 5.17082C6.14866 5.13805 6.19494 5.13805 6.20586 5.17082Z" fill="#F5F5F5"/>
<path d="M6.20586 6.49403L6.29022 6.74702L6.5569 6.74905C6.59144 6.74935 6.60573 6.79334 6.57797 6.8139L6.36344 6.97234L6.44392 7.22659C6.45437 7.25948 6.41685 7.28677 6.38874 7.26665L6.1718 7.11157L5.95485 7.26665C5.92675 7.28677 5.88932 7.25948 5.89968 7.22659L5.98015 6.97234L5.76563 6.8139C5.73787 6.79334 5.75216 6.74935 5.7867 6.74905L6.05338 6.74702L6.13774 6.49403C6.14866 6.4613 6.19494 6.4613 6.20586 6.49403Z" fill="#F5F5F5"/>
<path d="M7.23394 1.87492L7.3183 2.12791L7.58498 2.12994C7.61952 2.13024 7.63381 2.17428 7.60605 2.19479L7.39152 2.35319L7.472 2.60743C7.48244 2.64033 7.44493 2.66762 7.41682 2.6475L7.19988 2.49242L6.98293 2.6475C6.95483 2.66762 6.91739 2.64033 6.92776 2.60743L7.00823 2.35319L6.7937 2.19479C6.76594 2.17424 6.78023 2.1302 6.81477 2.12994L7.08145 2.12791L7.16581 1.87492C7.17665 1.84215 7.22302 1.84215 7.23394 1.87492Z" fill="#F5F5F5"/>
<path d="M7.23394 3.19837L7.3183 3.45137L7.58498 3.4534C7.61952 3.4537 7.63381 3.49769 7.60605 3.51824L7.39152 3.67669L7.472 3.93093C7.48244 3.96383 7.44493 3.99112 7.41682 3.971L7.19988 3.81592L6.98293 3.971C6.95483 3.99107 6.91739 3.96383 6.92776 3.93093L7.00823 3.67669L6.7937 3.51824C6.76594 3.49769 6.78023 3.4537 6.81477 3.4534L7.08145 3.45137L7.16581 3.19837C7.17665 3.16565 7.22302 3.16565 7.23394 3.19837Z" fill="#F5F5F5"/>
<path d="M7.23394 4.52189L7.3183 4.77489L7.58498 4.77691C7.61952 4.77722 7.63381 4.82121 7.60605 4.84176L7.39152 5.00021L7.472 5.25445C7.48244 5.28735 7.44493 5.31464 7.41682 5.29452L7.19988 5.13944L6.98293 5.29452C6.95483 5.31459 6.91739 5.28739 6.92776 5.25445L7.00823 5.00021L6.7937 4.84176C6.76594 4.82121 6.78023 4.77722 6.81477 4.77691L7.08145 4.77489L7.16581 4.52189C7.17665 4.48912 7.22302 4.48912 7.23394 4.52189Z" fill="#F5F5F5"/>
<path d="M7.23394 5.84538L7.3183 6.09837L7.58498 6.1004C7.61952 6.1007 7.63381 6.14474 7.60605 6.16525L7.39152 6.32369L7.472 6.57794C7.48244 6.61083 7.44493 6.63812 7.41682 6.618L7.19988 6.46292L6.98293 6.618C6.95483 6.63808 6.91739 6.61083 6.92776 6.57794L7.00823 6.32369L6.7937 6.16525C6.76594 6.14478 6.78023 6.1007 6.81477 6.1004L7.08145 6.09837L7.16581 5.84538C7.17665 5.81261 7.22302 5.81261 7.23394 5.84538Z" fill="#F5F5F5"/>
<path d="M7.23394 7.16908L7.3183 7.42207L7.58498 7.4241C7.61952 7.4244 7.63381 7.46839 7.60605 7.48894L7.39152 7.64739L7.472 7.90163C7.48244 7.93453 7.44493 7.96182 7.41682 7.9417L7.19988 7.78662L6.98293 7.9417C6.95483 7.96178 6.91739 7.93453 6.92776 7.90163L7.00823 7.64739L6.7937 7.48894C6.76594 7.46839 6.78023 7.4244 6.81477 7.4241L7.08145 7.42207L7.16581 7.16908C7.17665 7.13635 7.22302 7.13635 7.23394 7.16908Z" fill="#F5F5F5"/>
<path d="M8.26006 2.52357L8.34442 2.77656L8.6111 2.77859C8.64564 2.77889 8.65993 2.82293 8.63217 2.84344L8.41764 3.00188L8.49812 3.25613C8.50857 3.28903 8.47105 3.31631 8.44294 3.29619L8.226 3.14111L8.00905 3.29619C7.98095 3.31627 7.94352 3.28903 7.95388 3.25613L8.03435 3.00188L7.81983 2.84344C7.79207 2.82289 7.80636 2.77889 7.8409 2.77859L8.10758 2.77656L8.19194 2.52357C8.20282 2.49084 8.24914 2.49084 8.26006 2.52357Z" fill="#F5F5F5"/>
<path d="M8.26006 3.84733L8.34442 4.10032L8.6111 4.10235C8.64564 4.10266 8.65993 4.14669 8.63217 4.1672L8.41764 4.32564L8.49812 4.57989C8.50857 4.61279 8.47105 4.64007 8.44294 4.61996L8.226 4.46488L8.00905 4.61996C7.98095 4.64003 7.94352 4.61283 7.95388 4.57989L8.03435 4.32564L7.81983 4.1672C7.79207 4.14674 7.80636 4.10266 7.8409 4.10235L8.10758 4.10032L8.19194 3.84733C8.20282 3.81456 8.24914 3.81456 8.26006 3.84733Z" fill="#F5F5F5"/>
<path d="M8.26006 5.17082L8.34442 5.42381L8.6111 5.42584C8.64564 5.42614 8.65993 5.47013 8.63217 5.49069L8.41764 5.64913L8.49812 5.90338C8.50857 5.93627 8.47105 5.96356 8.44294 5.94344L8.226 5.78836L8.00905 5.94344C7.98095 5.96352 7.94352 5.93627 7.95388 5.90338L8.03435 5.64913L7.81983 5.49069C7.79207 5.47013 7.80636 5.42614 7.8409 5.42584L8.10758 5.42381L8.19194 5.17082C8.20282 5.13805 8.24914 5.13805 8.26006 5.17082Z" fill="#F5F5F5"/>
<path d="M8.26006 6.49403L8.34442 6.74702L8.6111 6.74905C8.64564 6.74935 8.65993 6.79334 8.63217 6.8139L8.41764 6.97234L8.49812 7.22659C8.50857 7.25948 8.47105 7.28677 8.44294 7.26665L8.226 7.11157L8.00905 7.26665C7.98095 7.28677 7.94352 7.25948 7.95388 7.22659L8.03435 6.97234L7.81983 6.8139C7.79207 6.79334 7.80636 6.74935 7.8409 6.74905L8.10758 6.74702L8.19194 6.49403C8.20282 6.4613 8.24914 6.4613 8.26006 6.49403Z" fill="#F5F5F5"/>
<path d="M9.28881 1.87492L9.37317 2.12791L9.63985 2.12994C9.67439 2.13024 9.68868 2.17428 9.66092 2.19479L9.44639 2.35319L9.52687 2.60743C9.53731 2.64033 9.4998 2.66762 9.47169 2.6475L9.25475 2.49242L9.0378 2.6475C9.0097 2.66762 8.97227 2.64033 8.98263 2.60743L9.0631 2.35319L8.84857 2.19479C8.82081 2.17424 8.8351 2.1302 8.86964 2.12994L9.13632 2.12791L9.22068 1.87492C9.23156 1.84215 9.27784 1.84215 9.28881 1.87492Z" fill="#F5F5F5"/>
<path d="M9.28881 3.19837L9.37317 3.45137L9.63985 3.4534C9.67439 3.4537 9.68868 3.49769 9.66092 3.51824L9.44639 3.67669L9.52687 3.93093C9.53731 3.96383 9.4998 3.99112 9.47169 3.971L9.25475 3.81592L9.0378 3.971C9.0097 3.99107 8.97227 3.96383 8.98263 3.93093L9.0631 3.67669L8.84857 3.51824C8.82081 3.49769 8.8351 3.4537 8.86964 3.4534L9.13632 3.45137L9.22068 3.19837C9.23156 3.16565 9.27784 3.16565 9.28881 3.19837Z" fill="#F5F5F5"/>
<path d="M9.28881 4.52189L9.37317 4.77489L9.63985 4.77691C9.67439 4.77722 9.68868 4.82121 9.66092 4.84176L9.44639 5.00021L9.52687 5.25445C9.53731 5.28735 9.4998 5.31464 9.47169 5.29452L9.25475 5.13944L9.0378 5.29452C9.0097 5.31459 8.97227 5.28739 8.98263 5.25445L9.0631 5.00021L8.84857 4.84176C8.82081 4.82121 8.8351 4.77722 8.86964 4.77691L9.13632 4.77489L9.22068 4.52189C9.23156 4.48912 9.27784 4.48912 9.28881 4.52189Z" fill="#F5F5F5"/>
<path d="M9.28881 5.84538L9.37317 6.09837L9.63985 6.1004C9.67439 6.1007 9.68868 6.14474 9.66092 6.16525L9.44639 6.32369L9.52687 6.57794C9.53731 6.61083 9.4998 6.63812 9.47169 6.618L9.25475 6.46292L9.0378 6.618C9.0097 6.63808 8.97227 6.61083 8.98263 6.57794L9.0631 6.32369L8.84857 6.16525C8.82081 6.14478 8.8351 6.1007 8.86964 6.1004L9.13632 6.09837L9.22068 5.84538C9.23156 5.81261 9.27784 5.81261 9.28881 5.84538Z" fill="#F5F5F5"/>
<path d="M9.28881 7.16908L9.37317 7.42207L9.63985 7.4241C9.67439 7.4244 9.68868 7.46839 9.66092 7.48894L9.44639 7.64739L9.52687 7.90163C9.53731 7.93453 9.4998 7.96182 9.47169 7.9417L9.25475 7.78662L9.0378 7.9417C9.0097 7.96178 8.97227 7.93453 8.98263 7.90163L9.0631 7.64739L8.84857 7.48894C8.82081 7.46839 8.8351 7.4244 8.86964 7.4241L9.13632 7.42207L9.22068 7.16908C9.23156 7.13635 9.27784 7.13635 9.28881 7.16908Z" fill="#F5F5F5"/>
</svg>
