<svg width="75" height="75" viewBox="0 0 75 75" fill="none" xmlns="http://www.w3.org/2000/svg">
<path d="M30.2866 31.8983C29.3902 31.0019 25.5808 30.7779 24.3483 30.6658C24.2362 30.6658 24.1242 30.6658 24.0121 30.7778C23.9001 30.8899 23.7881 31.114 23.7881 31.226V41.31C23.7881 41.6461 24.0122 41.8702 24.3483 41.8702H27.7096C27.9337 41.8702 28.1578 41.7582 28.2699 41.5341C28.2699 41.1979 30.2867 35.2596 30.5108 32.3465C30.5107 32.2344 30.5107 32.0103 30.2866 31.8983Z" fill="#F28742"/>
<path d="M42.2747 34.5869C41.1543 34.2508 40.1459 33.8026 39.2495 33.4665C37.2327 32.5701 36.3363 33.0183 34.5436 34.811C33.7594 35.5953 33.1991 36.7158 33.3111 37.1639C33.3111 37.276 33.3111 37.276 33.5353 37.388C34.0955 37.6121 34.8798 37.7242 35.6641 36.4917C35.7761 36.3796 35.8882 36.2676 36.1122 36.2676C36.4484 36.2676 36.5604 36.1555 36.8965 36.0435C37.1206 35.9314 37.3447 35.8194 37.6808 35.7073C37.7928 35.7073 37.7928 35.7073 37.9049 35.7073C38.0169 35.7073 38.241 35.8194 38.3531 35.8194C38.9134 36.3796 39.9218 37.1639 40.9301 38.0603C42.4988 39.2928 44.0674 40.6373 44.8517 41.6457H44.9637C44.1794 39.4048 42.8349 35.5953 42.2747 34.5869Z" fill="#F28742"/>
<path d="M50.1198 31.7866C45.7501 31.7866 43.2851 32.907 43.173 32.907C43.061 33.0191 42.9489 33.1311 42.8369 33.2432C42.8369 33.3552 42.8369 33.5793 42.9489 33.6913C43.6212 34.8118 45.8621 40.9742 46.1982 42.5428C46.3103 42.7669 46.5344 42.9909 46.7585 42.9909H50.1198C50.4559 42.9909 50.68 42.7668 50.68 42.4307V32.3468C50.68 32.0107 50.4559 31.7866 50.1198 31.7866Z" fill="#F28742"/>
<path d="M44.0679 42.7668C43.6197 41.7584 41.7149 40.3018 40.0343 38.9573C39.138 38.1729 38.2416 37.5007 37.5693 36.9404C37.4573 37.0525 37.2332 37.0525 37.2332 37.1646C36.8971 37.2766 36.785 37.3887 36.3368 37.3887C35.4405 38.5091 34.32 38.9572 33.0876 38.5091C32.5274 38.3971 32.1912 37.9488 32.0792 37.5007C31.8551 36.3803 32.8635 34.8116 33.6478 34.0273H31.4069C30.9588 36.2682 30.1744 39.1813 29.6143 40.75C30.0624 41.1981 30.5106 41.7584 30.8468 41.9825C32.9756 43.7752 35.4406 45.5679 35.8887 45.904C36.2249 46.1281 36.8971 46.3522 37.2333 46.3522C37.3453 46.3522 37.4574 46.3522 37.5694 46.3522L35.7767 44.5594C35.5525 44.3353 35.5525 43.9992 35.7767 43.7752C36.0008 43.5511 36.3369 43.5511 36.5609 43.7752L38.8018 46.0161C39.0259 46.2402 39.25 46.1281 39.4741 46.1281C39.8102 46.0161 39.9223 45.7919 40.0343 45.4558L37.4573 42.8788C37.2332 42.6547 37.2332 42.3186 37.4573 42.0945C37.6814 41.8704 38.0175 41.8704 38.2416 42.0945L41.0427 44.8956C41.1547 45.0076 41.6029 45.0076 41.939 44.8956C42.0511 44.7836 42.2752 44.6715 42.3872 44.4474L39.25 41.3102C39.0259 41.0861 39.0259 40.7499 39.25 40.5259C39.4741 40.3018 39.8102 40.3018 40.0343 40.5259L43.2836 43.7752C43.5077 43.8872 43.7317 43.7752 43.9558 43.6631C44.0679 43.5511 44.292 43.2149 44.0679 42.7668Z" fill="#F28742"/>
<circle cx="37.2327" cy="37.5838" r="36.554" fill="url(#paint0_linear_814_381)" fill-opacity="0.14" stroke="#FF8924"/>
<defs>
<linearGradient id="paint0_linear_814_381" x1="0.178711" y1="58.537" x2="99.7454" y2="58.0294" gradientUnits="userSpaceOnUse">
<stop stop-color="#FF8924"/>
<stop offset="1" stop-color="#FE604E"/>
</linearGradient>
</defs>
</svg>
