<svg width="40" height="41" viewBox="0 0 40 41" fill="none" xmlns="http://www.w3.org/2000/svg">
<path d="M30.917 29.8278L28.8209 28.5701C27.9984 28.0785 27.0479 27.8431 26.0909 27.8943C25.1341 27.9455 24.2138 28.2806 23.4483 28.8569L21.6721 30.1918C21.1016 30.6217 20.4156 30.8714 19.7021 30.9088C18.9883 30.946 18.28 30.7693 17.6677 30.4012C14.4309 28.4659 11.7158 25.7696 9.75806 22.5462C9.3899 21.9339 9.21328 21.2253 9.25071 20.5118C9.28785 19.7983 9.53757 19.1123 9.96772 18.5418L11.3026 16.7546C11.8798 15.989 12.215 15.0682 12.2641 14.1105C12.3132 13.1528 12.0743 12.2025 11.5784 11.382L10.3207 9.28591C9.65454 8.09258 8.46498 7.28313 7.11048 7.10152C5.68261 6.95589 4.26814 7.48195 3.28239 8.52474L2.43289 9.37425C0.584763 11.2285 -0.285177 13.8427 0.0829809 16.4347C0.952322 22.398 3.72242 27.9218 7.98139 32.1843C12.2407 36.4475 17.7618 39.2228 23.7243 40.0977C24.0898 40.1518 24.4583 40.1814 24.8276 40.186C27.0398 40.1849 29.1616 39.3082 30.7298 37.7479L31.7226 36.7551C32.6919 35.7925 33.1607 34.4353 32.9923 33.0799C32.8241 31.7243 32.0375 30.523 30.862 29.8271L30.917 29.8278Z" fill="#377C96"/>
<path d="M27.5525 0.482981C23.2788 0.493216 19.3254 2.75069 17.1448 6.42644C14.9642 10.1022 14.8783 14.6542 16.9179 18.4099L15.4727 23.319C15.3675 23.6536 15.4277 24.0179 15.6344 24.301C15.8412 24.584 16.1701 24.7519 16.5208 24.7534C16.6231 24.7694 16.7272 24.7694 16.8296 24.7534L21.7387 23.3082L21.739 23.3079C25.0281 25.075 28.9477 25.2294 32.366 23.7269C35.7841 22.2242 38.3199 19.2316 39.2417 15.6129C40.1634 11.9945 39.368 8.15358 37.0854 5.19851C34.8025 2.24388 31.2867 0.5043 27.5528 0.482666L27.5525 0.482981ZM27.5525 17.0306H23.1399C22.7457 17.0306 22.3817 16.8204 22.1845 16.4791C21.9875 16.1379 21.9875 15.7171 22.1845 15.3759C22.3816 15.0346 22.7457 14.8244 23.1399 14.8244H27.5528H27.5525C27.9467 14.8244 28.311 15.0346 28.5081 15.3759C28.7053 15.7171 28.7052 16.1379 28.5081 16.4791C28.3111 16.8203 27.9467 17.0306 27.5525 17.0306H27.5525ZM31.9654 13.721H23.1402C22.746 13.721 22.382 13.5108 22.1848 13.1695C21.9878 12.8283 21.9878 12.4078 22.1848 12.0663C22.3819 11.725 22.746 11.5147 23.1402 11.5147H31.9654C32.3596 11.5147 32.7236 11.725 32.9207 12.0663C33.1178 12.4078 33.1178 12.8283 32.9207 13.1695C32.7236 13.5108 32.3596 13.721 31.9654 13.721ZM31.9654 10.4114H23.1402C22.746 10.4114 22.382 10.2012 22.1848 9.85992C21.9878 9.51867 21.9878 9.09815 22.1848 8.75665C22.3819 8.41539 22.746 8.20514 23.1402 8.20514H31.9654C32.3596 8.20514 32.7236 8.41539 32.9207 8.75665C33.1178 9.09819 33.1178 9.51871 32.9207 9.85992C32.7236 10.2012 32.3596 10.4114 31.9654 10.4114Z" fill="#377C96"/>
</svg>
