<svg width="54" height="54" viewBox="0 0 54 54" fill="none" xmlns="http://www.w3.org/2000/svg">
<g filter="url(#filter0_d_1_258)">
<circle cx="25.1663" cy="24.0156" r="20.3408" fill="#3CBA28"/>
</g>
<g clip-path="url(#clip0_1_258)">
<path d="M14.2673 34.9685L15.8071 29.3433C14.857 27.6968 14.3577 25.8302 14.3586 23.9163C14.3614 17.9324 19.2308 13.063 25.2137 13.063C28.1171 13.0639 30.8425 14.1948 32.8925 16.2466C34.9416 18.2984 36.0697 21.0256 36.0688 23.9263C36.0661 29.9111 31.1967 34.7805 25.2137 34.7805C23.3974 34.7796 21.6075 34.3241 20.0221 33.4588L14.2673 34.9685ZM20.2886 31.4937C21.8184 32.4019 23.2787 32.9459 25.2101 32.9468C30.1826 32.9468 34.2333 28.8998 34.236 23.9245C34.2379 18.9391 30.2063 14.8976 25.2174 14.8957C20.2412 14.8957 16.1932 18.9428 16.1914 23.9172C16.1905 25.948 16.7856 27.4686 17.785 29.0595L16.8732 32.3891L20.2886 31.4937ZM30.6819 26.5066C30.6143 26.3934 30.4336 26.3259 30.1616 26.1899C29.8905 26.0539 28.557 25.3976 28.3079 25.3073C28.0596 25.2169 27.8789 25.1713 27.6972 25.4433C27.5165 25.7143 26.9963 26.3259 26.8384 26.5066C26.6805 26.6873 26.5217 26.7101 26.2506 26.5741C25.9795 26.4381 25.1051 26.1524 24.0691 25.2278C23.2632 24.5086 22.7183 23.6205 22.5604 23.3485C22.4025 23.0775 22.544 22.9305 22.6791 22.7954C22.8014 22.674 22.9501 22.4787 23.0861 22.3199C23.224 22.1629 23.2687 22.0497 23.36 21.8681C23.4503 21.6874 23.4056 21.5286 23.3371 21.3926C23.2687 21.2575 22.7265 19.9222 22.5011 19.3791C22.2802 18.8506 22.0566 18.9218 21.8905 18.9136L21.3702 18.9045C21.1895 18.9045 20.8956 18.972 20.6473 19.244C20.3991 19.516 19.6981 20.1713 19.6981 21.5066C19.6981 22.842 20.6701 24.1317 20.8052 24.3124C20.9412 24.4931 22.7174 27.2331 25.4382 28.4078C26.0854 28.6871 26.591 28.8541 26.9844 28.9792C27.6343 29.1854 28.2257 29.1562 28.693 29.0869C29.2142 29.0093 30.2976 28.4306 30.524 27.7972C30.7503 27.1628 30.7503 26.6198 30.6819 26.5066Z" fill="white"/>
</g>
<defs>
<filter id="filter0_d_1_258" x="0.825439" y="0.674805" width="52.6816" height="52.6816" filterUnits="userSpaceOnUse" color-interpolation-filters="sRGB">
<feFlood flood-opacity="0" result="BackgroundImageFix"/>
<feColorMatrix in="SourceAlpha" type="matrix" values="0 0 0 0 0 0 0 0 0 0 0 0 0 0 0 0 0 0 127 0" result="hardAlpha"/>
<feOffset dx="2" dy="3"/>
<feGaussianBlur stdDeviation="3"/>
<feComposite in2="hardAlpha" operator="out"/>
<feColorMatrix type="matrix" values="0 0 0 0 0 0 0 0 0 0 0 0 0 0 0 0 0 0 0.2 0"/>
<feBlend mode="normal" in2="BackgroundImageFix" result="effect1_dropShadow_1_258"/>
<feBlend mode="normal" in="SourceGraphic" in2="effect1_dropShadow_1_258" result="shape"/>
</filter>
<clipPath id="clip0_1_258">
<rect width="21.9055" height="21.9055" fill="white" transform="translate(14.2141 13.063)"/>
</clipPath>
</defs>
</svg>
