<svg width="20" height="15" viewBox="0 0 20 15" fill="none" xmlns="http://www.w3.org/2000/svg">
<path d="M18.9231 3.64596C18.8447 3.64596 18.7551 3.65711 18.6655 3.67941L17.702 3.94708L16.7048 1.51574C16.4248 0.824252 15.5845 0.266602 14.8339 0.266602H5.46777C4.71714 0.266602 3.88808 0.824252 3.59679 1.51574L2.59969 3.93593L1.64739 3.67941C1.55776 3.65711 1.47934 3.64596 1.38971 3.64596C0.930369 3.64596 0.605469 3.9917 0.605469 4.47128V5.04008C0.605469 5.59773 1.06481 6.055 1.62498 6.055H1.73702L1.58017 6.44535C1.31129 7.08107 1.09842 8.16291 1.09842 8.85439V13.6725C1.09842 14.2301 1.55776 14.6874 2.11794 14.6874H3.43995C4.00012 14.6874 4.45946 14.2301 4.45946 13.6725V12.468H15.8646V13.6725C15.8646 14.2301 16.3239 14.6874 16.8841 14.6874H18.2061C18.7663 14.6874 19.2256 14.2301 19.2256 13.6725V8.85439C19.2256 8.16291 19.0128 7.08107 18.7439 6.44535L18.587 6.055H18.7103C19.2704 6.055 19.7298 5.59773 19.7298 5.04008V4.46012C19.7074 3.9917 19.3825 3.64596 18.9231 3.64596ZM3.32791 5.49735L4.84038 1.82802C5.00843 1.41536 5.51259 1.08077 5.96072 1.08077H14.3409C14.7891 1.08077 15.2932 1.41536 15.4613 1.82802L16.9737 5.49735C17.1418 5.91001 16.9177 6.2446 16.4696 6.2446H3.83207C3.39513 6.2446 3.15986 5.89885 3.32791 5.49735ZM6.71136 10.137C6.71136 10.36 6.5321 10.5385 6.30803 10.5385H3.42874C3.20467 10.5385 3.02542 10.36 3.02542 10.137V8.76517C3.02542 8.54211 3.20467 8.36366 3.42874 8.36366H6.30803C6.5321 8.36366 6.71136 8.54211 6.71136 8.76517V10.137ZM17.265 10.137C17.265 10.36 17.0858 10.5385 16.8617 10.5385H13.9824C13.7583 10.5385 13.5791 10.36 13.5791 10.137V8.76517C13.5791 8.54211 13.7583 8.36366 13.9824 8.36366H16.8617C17.0858 8.36366 17.265 8.54211 17.265 8.76517V10.137Z" fill="white"/>
</svg>
