<svg width="58" height="58" viewBox="0 0 58 58" fill="none" xmlns="http://www.w3.org/2000/svg">
<path d="M29 56C43.9117 56 56 43.9117 56 29C56 14.0883 43.9117 2 29 2C14.0883 2 2 14.0883 2 29C2 43.9117 14.0883 56 29 56Z" stroke="#FFA9BC" stroke-width="3" stroke-miterlimit="10"/>
<path d="M21.6527 15.9038C23.5237 13.9121 26.0922 12.916 29.358 12.916C32.3791 12.916 34.7982 13.768 36.6147 15.4718C38.4317 17.1763 39.3405 19.3535 39.3405 22.0041C39.3405 23.6097 39.0114 24.9121 38.3519 25.9122C37.6935 26.9118 36.343 28.3813 34.3013 30.3201C32.8163 31.7287 31.8495 32.9213 31.4014 33.8985C30.9533 34.8751 30.7293 36.3181 30.7293 38.2265H26.685C26.685 36.0602 26.9424 34.315 27.4582 32.9897C27.973 31.6638 29.119 30.146 30.8953 28.4341L32.7497 26.6389C33.3057 26.1242 33.7567 25.5865 34.1025 25.0252C34.7322 24.0412 35.0464 23.0186 35.0464 21.9581C35.0464 20.4737 34.5943 19.1863 33.6895 18.0954C32.7853 17.0051 31.2888 16.4593 29.2012 16.4593C26.6184 16.4593 24.8329 17.3986 23.8425 19.2765C23.2859 20.3215 22.9688 21.8289 22.8918 23.7982H18.8475C18.8464 20.5277 19.7816 17.8955 21.6527 15.9038ZM26.5942 41.9985H31.1159V46.7246H26.5942V41.9985Z" fill="#FF2D5C"/>
</svg>
