<svg width="19" height="26" viewBox="0 0 19 26" fill="none" xmlns="http://www.w3.org/2000/svg">
<path d="M17.4836 0.6875H12.3546C12.0021 0.6875 11.7117 0.875 11.7117 1.10417C11.7117 2.02604 10.5643 2.77083 9.14723 2.77083C7.73018 2.77083 6.58272 2.02604 6.58272 1.10417C6.58272 0.875 6.29239 0.6875 5.93986 0.6875H0.824651C0.472116 0.6875 0.181794 0.875 0.181794 1.10417V6.34896L0.174881 6.34375C0.174881 6.35938 0.181794 6.375 0.181794 6.39062C0.181794 6.39583 0.181794 6.39583 0.181794 6.40104C0.181794 6.40625 0.181794 6.40625 0.181794 6.41146C0.181794 6.41667 0.181794 6.41667 0.181794 6.42188C0.181794 6.42708 0.181794 6.42708 0.181794 6.43229C0.181794 6.45312 0.181794 6.47396 0.174881 6.48958C0.174881 6.51042 0.181794 6.52604 0.181794 6.54688C0.181794 6.56771 0.181794 6.58854 0.174881 6.60417C0.174881 6.61979 0.167969 6.63542 0.167969 6.64583C0.167969 6.65104 0.167969 6.65625 0.167969 6.66146C0.167969 6.67708 0.174881 6.69792 0.174881 6.71354C0.174881 6.73958 0.174881 6.76563 0.167969 6.79167C0.174881 6.89583 0.174881 7 0.174881 7.10937C0.181794 7.13542 0.181794 7.16667 0.181794 7.19792C0.181794 7.20833 0.181794 7.21354 0.181794 7.22396C0.188706 7.25521 0.195618 7.28646 0.195618 7.32292C0.195618 7.35937 0.188706 7.39583 0.181794 7.42708V7.43229C0.181794 7.44792 0.188706 7.46875 0.188706 7.48438C0.188706 7.49479 0.188706 7.51042 0.188706 7.52083L0.195618 7.52604V8.84896C0.202531 9.00521 0.202531 9.16146 0.195618 9.31771C0.195618 9.43229 0.188706 9.54687 0.181794 9.66146C0.195619 9.82812 0.202531 10 0.202531 10.1719C0.202531 10.1823 0.202531 10.1875 0.202531 10.1979V18.0208L0.195618 18.0156C0.209443 18.1875 0.202531 18.3646 0.188706 18.5417C0.188706 18.5573 0.195618 18.5781 0.195618 18.5937C0.195618 18.6094 0.195618 18.625 0.195618 18.6458C0.195618 18.6562 0.195618 18.6719 0.195618 18.6823C0.195618 18.7188 0.188706 18.7604 0.181794 18.7969C0.188706 18.8333 0.195618 18.8698 0.195618 18.9115C0.195618 18.9167 0.195618 18.9219 0.195618 18.9271C0.202531 18.9531 0.202531 18.9792 0.209443 19.0104C0.216356 19.0781 0.216356 19.1406 0.202531 19.2031L0.209443 19.2083V20.3125C0.216356 20.349 0.223268 20.3854 0.223268 20.4271C0.223268 20.8542 0.230181 21.2812 0.202531 21.7083L0.209443 21.7135V25.2708C0.209443 25.5 0.499766 25.6875 0.8523 25.6875H5.98133C6.33387 25.6875 6.62419 25.5 6.62419 25.2708C6.62419 24.349 7.77166 23.6042 9.18871 23.6042C10.6058 23.6042 11.7532 24.349 11.7532 25.2708C11.7532 25.5 12.0435 25.6875 12.3961 25.6875H17.5251C17.8776 25.6875 18.168 25.5 18.168 25.2708V1.10417C18.1265 0.875 17.8362 0.6875 17.4836 0.6875Z" fill="white"/>
<path d="M15.2293 10.2085C15.175 10.2085 15.1129 10.2168 15.0509 10.2332L14.3839 10.4312L13.6936 8.6329C13.4997 8.12145 12.9179 7.70898 12.3983 7.70898H5.91406C5.39439 7.70898 4.82043 8.12145 4.61877 8.6329L3.92846 10.423L3.26918 10.2332C3.20713 10.2168 3.15284 10.2085 3.09079 10.2085C2.77278 10.2085 2.54785 10.4642 2.54785 10.8189V11.2397C2.54785 11.6521 2.86586 11.9903 3.25367 11.9903H3.33123L3.22264 12.2791C3.03649 12.7493 2.88913 13.5494 2.88913 14.0609V17.6246C2.88913 18.037 3.20713 18.3752 3.59494 18.3752H4.51018C4.89799 18.3752 5.216 18.037 5.216 17.6246V16.7336H13.1118V17.6246C13.1118 18.037 13.4298 18.3752 13.8177 18.3752H14.7329C15.1207 18.3752 15.4387 18.037 15.4387 17.6246V14.0609C15.4387 13.5494 15.2913 12.7493 15.1052 12.2791L14.9966 11.9903H15.0819C15.4697 11.9903 15.7877 11.6521 15.7877 11.2397V10.8107C15.7722 10.4642 15.5473 10.2085 15.2293 10.2085ZM4.43262 11.5779L5.47971 8.86388C5.59605 8.55866 5.94508 8.31118 6.25533 8.31118H12.057C12.3672 8.31118 12.7163 8.55866 12.8326 8.86388L13.8797 11.5779C13.996 11.8831 13.8409 12.1306 13.5307 12.1306H4.78165C4.47915 12.1306 4.31627 11.8748 4.43262 11.5779ZM6.775 15.0096C6.775 15.1745 6.6509 15.3065 6.49577 15.3065H4.50242C4.3473 15.3065 4.2232 15.1745 4.2232 15.0096V13.9949C4.2232 13.8299 4.3473 13.6979 4.50242 13.6979H6.49577C6.6509 13.6979 6.775 13.8299 6.775 13.9949V15.0096ZM14.0814 15.0096C14.0814 15.1745 13.9573 15.3065 13.8021 15.3065H11.8088C11.6537 15.3065 11.5296 15.1745 11.5296 15.0096V13.9949C11.5296 13.8299 11.6537 13.6979 11.8088 13.6979H13.8021C13.9573 13.6979 14.0814 13.8299 14.0814 13.9949V15.0096Z" fill="#004A85"/>
</svg>
