<svg width="41" height="38" viewBox="0 0 41 38" fill="none" xmlns="http://www.w3.org/2000/svg">
<path d="M32.6274 20.9748C32.1527 20.9748 31.678 21.0179 31.2032 21.1042L26.8874 13.6811C28.0958 12.2137 28.8727 10.4011 28.8727 8.32949C28.8727 3.75474 25.1179 0 20.5 0C15.8821 0 12.1274 3.75474 12.1274 8.37265C12.1274 10.4011 12.9042 12.2569 14.1127 13.7242L9.79686 21.1906C9.32212 21.1042 8.84738 21.0611 8.37265 21.0611C3.75474 21.0611 0 24.8158 0 29.4337C0 34.0516 3.75474 37.8064 8.37265 37.8064C11.9548 37.8064 15.019 35.519 16.1842 32.3253H24.8158C25.9811 35.519 29.0453 37.8064 32.6274 37.8064C37.2453 37.8064 41.0001 34.0516 41.0001 29.4337C41.0001 24.8158 37.2453 20.9748 32.6274 20.9748ZM32.6274 25.2043C34.0085 25.2043 35.1306 26.3264 35.1306 27.7074C35.1306 29.0885 34.0085 30.2106 32.6274 30.2106C31.2464 30.2106 30.1243 29.0885 30.1243 27.7074C30.1243 26.3264 31.2464 25.2043 32.6274 25.2043ZM23.0032 6.68949C23.0032 8.07054 21.8811 9.19265 20.5 9.19265C19.119 9.19265 17.9969 8.07054 17.9969 6.68949C17.9969 5.30843 19.119 4.18632 20.5 4.18632C21.8811 4.18632 23.0032 5.30843 23.0032 6.68949ZM16.9179 12.3863C17.0906 11.0484 18.2127 10.0127 19.5937 10.0127H21.4495C22.7874 10.0127 23.9527 11.0053 24.1253 12.3863L24.2116 13.0769C23.1758 13.8537 21.9242 14.3716 20.5432 14.3716C19.1621 14.3716 17.9106 13.8969 16.8748 13.0769L16.9179 12.3863ZM8.37265 25.2043C9.7537 25.2043 10.8758 26.3264 10.8758 27.7074C10.8758 29.0885 9.7537 30.2106 8.37265 30.2106C6.99159 30.2106 5.86948 29.0885 5.86948 27.7074C5.86948 26.3264 6.99159 25.2043 8.37265 25.2043ZM4.70422 34.0948L4.79054 33.4043C4.96317 32.0664 6.08527 31.0306 7.46633 31.0306H9.32212C10.66 31.0306 11.8253 32.0232 11.9979 33.4043L12.0842 34.0948C11.0484 34.8716 9.79686 35.3895 8.4158 35.3895C6.99159 35.3895 5.69685 34.8716 4.70422 34.0948ZM16.7021 29.8653C16.7021 29.6927 16.7453 29.5201 16.7453 29.3474C16.7453 26.0674 14.8463 23.2621 12.0842 21.8811L15.8821 15.3211C17.22 16.1842 18.7737 16.7021 20.5 16.7021C22.2264 16.7021 23.78 16.1842 25.1179 15.3211L28.9158 21.8811C26.1537 23.2621 24.2548 26.0674 24.2548 29.3474C24.2548 29.5201 24.2979 29.6927 24.2979 29.8653H16.7021ZM28.959 34.0948L29.0453 33.4043C29.2179 32.0664 30.3401 31.0306 31.7211 31.0306H33.5769C34.9148 31.0306 36.0801 32.0232 36.2527 33.4043L36.339 34.0948C35.3032 34.8716 34.0516 35.3895 32.6706 35.3895C31.2464 35.3895 29.9948 34.8716 28.959 34.0948Z" fill="#FF7190"/>
</svg>
