<svg width="44" height="45" viewBox="0 0 44 45" fill="none" xmlns="http://www.w3.org/2000/svg">
<path d="M9.89994 18.0063C8.14796 18.0063 6.74609 19.4082 6.74609 21.1602C6.74609 22.9122 8.14796 24.314 9.89994 24.314C11.6519 24.314 13.0538 22.9122 13.0538 21.1602C13.0538 19.4082 11.6522 18.0063 9.89994 18.0063ZM9.89994 22.4307C9.19902 22.4307 8.6298 21.8611 8.6298 21.1605C8.6298 20.4596 9.19934 19.8904 9.89994 19.8904C10.6009 19.8904 11.1701 20.4599 11.1701 21.1605C11.1704 21.8611 10.6009 22.4307 9.89994 22.4307Z" fill="#377C96"/>
<path d="M19.1416 18.0063C17.3897 18.0063 15.9878 19.4082 15.9878 21.1602C15.9878 22.9122 17.3897 24.314 19.1416 24.314C20.8936 24.314 22.2955 22.9122 22.2955 21.1602C22.2955 19.4082 20.8939 18.0063 19.1416 18.0063ZM19.1416 22.4307C18.4407 22.4307 17.8715 21.8611 17.8715 21.1605C17.8715 20.4596 18.441 19.8904 19.1416 19.8904C19.8426 19.8904 20.4118 20.4599 20.4118 21.1605C20.4121 21.8611 19.8425 22.4307 19.1416 22.4307Z" fill="#377C96"/>
<path d="M28.3843 24.314C30.1363 24.314 31.5382 22.9122 31.5382 21.1602C31.5382 19.4082 30.1363 18.0063 28.3843 18.0063C26.6323 18.0063 25.2305 19.4082 25.2305 21.1602C25.2305 22.9125 26.6323 24.314 28.3843 24.314ZM28.3843 19.89C29.0852 19.89 29.6545 20.4595 29.6545 21.1601C29.6545 21.861 29.0849 22.4303 28.3843 22.4303C27.6834 22.4303 27.1142 21.8607 27.1142 21.1601C27.1142 20.4592 27.6834 19.89 28.3843 19.89Z" fill="#377C96"/>
<path d="M9.89994 27.6436C8.14796 27.6436 6.74609 29.0454 6.74609 30.7974C6.74609 32.5494 8.14796 33.9513 9.89994 33.9513C11.6519 33.9513 13.0538 32.5494 13.0538 30.7974C13.0538 29.0454 11.6522 27.6436 9.89994 27.6436ZM9.89994 32.0679C9.19902 32.0679 8.6298 31.4983 8.6298 30.7977C8.6298 30.0968 9.19934 29.5276 9.89994 29.5276C10.6009 29.5276 11.1701 30.0971 11.1701 30.7977C11.1704 31.4983 10.6009 32.0679 9.89994 32.0679Z" fill="#377C96"/>
<path d="M19.1416 27.6436C17.3897 27.6436 15.9878 29.0454 15.9878 30.7974C15.9878 32.5494 17.3897 33.9513 19.1416 33.9513C20.8936 33.9513 22.2955 32.5494 22.2955 30.7974C22.2955 29.0454 20.8939 27.6436 19.1416 27.6436ZM19.1416 32.0679C18.4407 32.0679 17.8715 31.4983 17.8715 30.7977C17.8715 30.0968 18.441 29.5276 19.1416 29.5276C19.8426 29.5276 20.4118 30.0971 20.4118 30.7977C20.4121 31.4983 19.8425 32.0679 19.1416 32.0679Z" fill="#377C96"/>
<path d="M38.2843 27.731V8.45747C38.2843 6.17961 36.4445 4.33987 34.1667 4.33987H31.4509V3.50752C31.4509 1.97425 30.1808 0.704102 28.6475 0.704102H28.0343C26.501 0.704102 25.2308 1.97425 25.2308 3.50752V4.33987H13.0097V3.50752C13.0097 1.97425 11.7395 0.704102 10.2063 0.704102H9.59303C8.05976 0.704102 6.78961 1.97425 6.78961 3.50752V4.33987H4.1176C1.83974 4.29617 0 6.17961 0 8.41343V35.3088C0 37.5866 1.83974 39.4264 4.1176 39.4264H26.545C28.0782 41.1783 30.3121 42.3175 32.8087 42.3175C37.4081 42.3175 41.1752 38.5504 41.1752 33.951C41.1752 31.4544 40.0364 29.2642 38.2841 27.7309L38.2843 27.731ZM27.202 3.50768C27.202 3.02583 27.5961 2.63169 28.078 2.63169H28.6912C29.1731 2.63169 29.5672 3.02585 29.5672 3.50768L29.5675 7.05568C29.5675 7.53753 29.1733 7.93167 28.6915 7.93167H28.0783C27.5964 7.93167 27.2023 7.53751 27.2023 7.05568L27.202 3.50768ZM8.71693 3.50768C8.71693 3.02583 9.11109 2.63169 9.59292 2.63169H10.2062C10.688 2.63169 11.0821 3.02585 11.0821 3.50768L11.0825 7.05568C11.0825 7.53753 10.6883 7.93167 10.2065 7.93167H9.59323C9.11137 7.93167 8.71724 7.53751 8.71724 7.05568L8.71693 3.50768ZM4.11781 6.22341H6.78982V7.05576C6.78982 8.58904 8.05996 9.85918 9.59324 9.85918H10.2065C11.7397 9.85918 13.0099 8.58904 13.0099 7.05576V6.22341H25.3187V7.05576C25.3187 8.58904 26.5888 9.85918 28.1221 9.85918H28.7353C30.2686 9.85918 31.5387 8.58904 31.5387 7.05576V6.22341H34.1671C35.3936 6.22341 36.401 7.23082 36.401 8.45731V12.5309L1.92768 12.5312V8.45762C1.92768 7.23112 2.89136 6.22349 4.11785 6.22349L4.11781 6.22341ZM4.11781 37.5429C2.89131 37.5429 1.88391 36.5355 1.88391 35.309L1.8836 14.4147H36.3569V26.4607C35.2618 25.9351 34.0791 25.6283 32.7649 25.6283C28.1654 25.6283 24.3984 29.3954 24.3984 33.9948C24.3984 35.2649 24.7052 36.4918 25.2308 37.5868L4.11828 37.5865L4.11781 37.5429ZM32.8091 40.434C29.2611 40.434 26.37 37.5429 26.37 33.9949C26.37 30.4469 29.2611 27.5558 32.8091 27.5558C36.3571 27.5558 39.2482 30.4469 39.2482 33.9949C39.2482 37.5429 36.3574 40.434 32.8091 40.434Z" fill="#377C96"/>
<path d="M35.5688 31.1911C35.2183 30.8406 34.6051 30.8406 34.2109 31.1911L32.7654 32.6366L31.3199 31.1911C30.9694 30.8406 30.3562 30.8406 29.9621 31.1911C29.6116 31.5415 29.6116 32.1547 29.9621 32.5489L31.4076 33.9944L29.9621 35.4399C29.6116 35.7904 29.6116 36.4036 29.9621 36.7978C30.1371 36.9728 30.4002 37.0605 30.619 37.0605C30.8381 37.0605 31.1008 36.9728 31.2759 36.7978L32.7214 35.3522L34.1669 36.7978C34.342 36.9728 34.6051 37.0605 34.8239 37.0605C35.0866 37.0605 35.3057 36.9728 35.4808 36.7978C35.8313 36.4473 35.8313 35.8341 35.4808 35.4399L34.1672 33.9504L35.6128 32.5049C35.9629 32.1544 35.9629 31.5851 35.5688 31.191L35.5688 31.1911Z" fill="#377C96"/>
<rect x="0.958496" y="13.3657" width="36.4343" height="24.4989" fill="#377C96"/>
<ellipse cx="32.3675" cy="34.0958" rx="10.679" ry="10.0508" fill="white"/>
<ellipse cx="32.0529" cy="34.0958" rx="9.10857" ry="9.42266" fill="#377C96"/>
<g clip-path="url(#clip0_799_334)">
<path d="M33.288 34.0881L37.2016 37.5126C37.4563 37.7354 37.4563 38.0955 37.2016 38.3183C36.9471 38.541 36.5355 38.541 36.2809 38.3183L32.3672 34.8938L28.4536 38.3183C28.1989 38.541 27.7874 38.541 27.5328 38.3183C27.2781 38.0955 27.2781 37.7354 27.5328 37.5126L31.4464 34.0881L27.5328 30.6636C27.2781 30.4409 27.2781 30.0807 27.5328 29.858C27.6597 29.7468 27.8265 29.691 27.9932 29.691C28.1599 29.691 28.3266 29.7468 28.4536 29.858L32.3672 33.2825L36.2809 29.858C36.4079 29.7468 36.5746 29.691 36.7413 29.691C36.908 29.691 37.0747 29.7468 37.2016 29.858C37.4563 30.0807 37.4563 30.4409 37.2016 30.6636L33.288 34.0881Z" fill="white"/>
</g>
<path d="M14.1504 19.6475C14.1504 21.0352 13.0254 22.1602 11.6377 22.1602C10.25 22.1602 9.125 21.0352 9.125 19.6475C9.125 18.2597 10.25 17.1348 11.6377 17.1348C13.0254 17.1348 14.1504 18.2597 14.1504 19.6475ZM10.4053 19.6475C10.4053 20.3281 10.957 20.8799 11.6377 20.8799C12.3184 20.8799 12.8702 20.3281 12.8702 19.6475C12.8702 18.9668 12.3184 18.415 11.6377 18.415C10.957 18.415 10.4053 18.9668 10.4053 19.6475Z" fill="white"/>
<path d="M26.7139 19.6475C26.7139 21.0352 25.5889 22.1602 24.2012 22.1602C22.8135 22.1602 21.6885 21.0352 21.6885 19.6475C21.6885 18.2597 22.8135 17.1348 24.2012 17.1348C25.5889 17.1348 26.7139 18.2597 26.7139 19.6475ZM22.9687 19.6475C22.9687 20.3281 23.5205 20.8799 24.2012 20.8799C24.8818 20.8799 25.4336 20.3281 25.4336 19.6475C25.4336 18.9668 24.8818 18.415 24.2012 18.415C23.5205 18.415 22.9687 18.9668 22.9687 19.6475Z" fill="white"/>
<path d="M14.1504 30.3267C14.1504 31.7144 13.0254 32.8394 11.6377 32.8394C10.25 32.8394 9.125 31.7144 9.125 30.3267C9.125 28.9389 10.25 27.814 11.6377 27.814C13.0254 27.814 14.1504 28.9389 14.1504 30.3267ZM10.4065 30.3267C10.4065 31.0067 10.9577 31.5579 11.6377 31.5579C12.3177 31.5579 12.8689 31.0067 12.8689 30.3267C12.8689 29.6467 12.3177 29.0954 11.6377 29.0954C10.9577 29.0954 10.4065 29.6467 10.4065 30.3267Z" fill="white"/>
<rect x="7.86816" y="1.43042" width="4.39724" height="6.90995" fill="#377C96"/>
<rect x="26.7134" y="1.43042" width="3.76906" height="6.90995" fill="#377C96"/>
<defs>
<clipPath id="clip0_799_334">
<rect width="10.0508" height="8.79448" fill="white" transform="matrix(1 0 0 -1 27.3418 38.4929)"/>
</clipPath>
</defs>
</svg>
