<svg width="44" height="40" viewBox="0 0 44 40" fill="none" xmlns="http://www.w3.org/2000/svg">
<path d="M32.5873 24.8115C33.2298 24.8115 33.7508 25.3329 33.7508 25.9754V29.4668H37.2422C37.8851 29.4668 38.4061 29.9878 38.4061 30.6307C38.4061 31.2733 37.8851 31.7943 37.2422 31.7943H32.5873C31.9443 31.7943 31.4233 31.2733 31.4233 30.6307V25.9754C31.4233 25.3329 31.9443 24.8115 32.5873 24.8115Z" fill="#377C96"/>
<path fill-rule="evenodd" clip-rule="evenodd" d="M23.3473 30.631H3.49137C1.56334 30.631 0 29.0677 0 27.1397V3.8632C0 1.93516 1.56334 0.371826 3.49137 0.371826H30.2582C32.1866 0.371826 33.7496 1.93516 33.7496 3.8632V5.02712H36.0774C38.0054 5.02712 39.5688 6.59045 39.5688 8.51849V23.3089C41.0172 24.9502 41.8962 27.1061 41.8962 29.4671C41.8962 34.6091 37.7276 38.7773 32.586 38.7773C27.838 38.7773 23.9204 35.2236 23.3476 30.631H23.3473ZM37.2409 8.51869C37.2409 7.87614 36.72 7.35476 36.0774 7.35476H6.00675C5.3642 7.35476 4.84283 6.83378 4.84283 6.19124C4.84283 5.5483 5.3642 5.02732 6.00675 5.02732H31.4229V3.8634C31.4229 3.22084 30.9019 2.69987 30.259 2.69987H3.49217C2.84962 2.69987 2.32824 3.22085 2.32824 3.8634V27.1399C2.32824 27.7824 2.84962 28.3034 3.49217 28.3034H23.3481C23.9209 23.7108 27.8386 20.1571 32.5865 20.1571C33.39 20.1571 34.1701 20.2588 34.914 20.4501C35.7397 20.6629 36.5213 20.9859 37.2414 21.4025L37.2409 8.51869ZM25.5478 29.4669L25.6573 28.591C26.0864 25.1491 29.0267 22.4841 32.5859 22.4841C33.8617 22.4841 35.0505 22.8243 36.0753 23.417L37.2408 24.0911V24.1889L37.8234 24.8486C38.9113 26.0811 39.5686 27.6943 39.5686 29.4669C39.5686 33.3234 36.4424 36.4496 32.5859 36.4496C29.0267 36.4496 26.0864 33.7847 25.6573 30.3428L25.5478 29.4669Z" fill="#377C96"/>
<rect x="1.88477" y="9.22119" width="35.8061" height="20.1017" fill="#377C96"/>
<circle cx="27.3258" cy="13.9325" r="1.5768" stroke="white" stroke-width="2.5"/>
<ellipse cx="32.366" cy="29.0087" rx="10.679" ry="10.3649" fill="white"/>
<ellipse cx="32.366" cy="29.0087" rx="9.42266" ry="9.10857" fill="#377C96"/>
<line x1="31.4814" y1="25.2974" x2="31.4814" y2="30.2073" stroke="white" stroke-width="2" stroke-linecap="round"/>
<line x1="36.3911" y1="30.9512" x2="31.4812" y2="30.9512" stroke="white" stroke-width="2" stroke-linecap="round"/>
</svg>
