<svg width="55" height="19" viewBox="0 0 55 19" fill="none" xmlns="http://www.w3.org/2000/svg">
<path d="M35.7945 4.666V14H34.41V9.7945H29.5415V14H28.1505V4.666H29.5415V8.787H34.41V4.666H35.7945ZM42.275 9.9635C42.275 9.71217 42.2382 9.48033 42.1645 9.268C42.0952 9.05567 41.9912 8.8715 41.8525 8.7155C41.7138 8.5595 41.5448 8.43817 41.3455 8.3515C41.1462 8.26483 40.9165 8.2215 40.6565 8.2215C40.1235 8.2215 39.7032 8.37533 39.3955 8.683C39.0922 8.99067 38.8993 9.4175 38.817 9.9635H42.275ZM43.3215 13.0575C43.1655 13.2395 42.9857 13.3977 42.782 13.532C42.5783 13.662 42.3617 13.7682 42.132 13.8505C41.9023 13.9328 41.664 13.9935 41.417 14.0325C41.1743 14.0715 40.9338 14.091 40.6955 14.091C40.2405 14.091 39.818 14.0152 39.428 13.8635C39.0423 13.7075 38.7065 13.4822 38.4205 13.1875C38.1388 12.8885 37.9178 12.5202 37.7575 12.0825C37.6015 11.6405 37.5235 11.1335 37.5235 10.5615C37.5235 10.1022 37.595 9.67533 37.738 9.281C37.881 8.88233 38.0847 8.53567 38.349 8.241C38.6177 7.94633 38.9448 7.7145 39.3305 7.5455C39.7162 7.3765 40.1495 7.292 40.6305 7.292C41.0335 7.292 41.404 7.35917 41.742 7.4935C42.0843 7.6235 42.379 7.81417 42.626 8.0655C42.873 8.31683 43.0658 8.62667 43.2045 8.995C43.3475 9.36333 43.419 9.78367 43.419 10.256C43.419 10.451 43.3973 10.5832 43.354 10.6525C43.3107 10.7175 43.2305 10.75 43.1135 10.75H38.7845C38.7975 11.1443 38.8538 11.4888 38.9535 11.7835C39.0532 12.0738 39.1897 12.3165 39.363 12.5115C39.5407 12.7065 39.7508 12.8517 39.9935 12.947C40.2362 13.0423 40.507 13.09 40.806 13.09C41.0877 13.09 41.3303 13.0575 41.534 12.9925C41.742 12.9275 41.9197 12.8582 42.067 12.7845C42.2187 12.7065 42.3443 12.635 42.444 12.57C42.548 12.505 42.639 12.4725 42.717 12.4725C42.821 12.4725 42.9012 12.5115 42.9575 12.5895L43.3215 13.0575ZM46.3414 4.406V14H45.0674V4.406H46.3414ZM49.6792 12.375C49.8872 12.648 50.1104 12.8387 50.3487 12.947C50.5914 13.0553 50.8622 13.1095 51.1612 13.1095C51.7419 13.1095 52.1904 12.9015 52.5067 12.4855C52.8274 12.0652 52.9877 11.4542 52.9877 10.6525C52.9877 10.2322 52.9509 9.87467 52.8772 9.58C52.8079 9.281 52.7039 9.03833 52.5652 8.852C52.4309 8.66133 52.264 8.52267 52.0647 8.436C51.8654 8.345 51.64 8.2995 51.3887 8.2995C51.0204 8.2995 50.6997 8.38183 50.4267 8.5465C50.158 8.71117 49.9089 8.94517 49.6792 9.2485V12.375ZM49.6142 8.384C49.7529 8.21933 49.9002 8.06983 50.0562 7.9355C50.2165 7.79683 50.3877 7.67983 50.5697 7.5845C50.7517 7.48483 50.9445 7.409 51.1482 7.357C51.3562 7.30067 51.5772 7.2725 51.8112 7.2725C52.1882 7.2725 52.5284 7.34617 52.8317 7.4935C53.1394 7.64083 53.4015 7.8575 53.6182 8.1435C53.8349 8.4295 54.0017 8.78267 54.1187 9.203C54.24 9.62333 54.3007 10.1065 54.3007 10.6525C54.3007 11.1422 54.2335 11.5972 54.0992 12.0175C53.9692 12.4335 53.7807 12.7953 53.5337 13.103C53.291 13.4107 52.992 13.6533 52.6367 13.831C52.2857 14.0043 51.8892 14.091 51.4472 14.091C51.0529 14.091 50.7149 14.026 50.4332 13.896C50.1515 13.766 49.9002 13.584 49.6792 13.35V16.2165H48.4117V7.396H49.1722C49.3499 7.396 49.4604 7.4805 49.5037 7.6495L49.6142 8.384Z" fill="#161616"/>
<path d="M12.7534 10.4452C12.7287 10.5134 12.7022 10.5817 12.6737 10.6481C12.6927 10.6026 12.7117 10.5571 12.7306 10.5115C12.6187 10.7733 12.4859 11.0237 12.3285 11.2608C12.2868 11.3234 12.2451 11.3841 12.1995 11.4448C12.1749 11.477 12.1009 11.551 12.2109 11.4315C12.1863 11.4599 12.1635 11.4903 12.1407 11.5206C12.0478 11.6344 11.9473 11.7444 11.8429 11.8488C11.7424 11.9493 11.6381 12.0441 11.5281 12.1352C11.4958 12.1617 11.4617 12.1921 11.4275 12.2167C11.4484 12.1997 11.4712 12.1845 11.492 12.1674C11.475 12.1807 11.4579 12.194 11.4408 12.2054C11.3801 12.249 11.3194 12.2926 11.2568 12.3343C11.0197 12.4918 10.7694 12.6245 10.5076 12.7365C10.5531 12.7175 10.5987 12.6985 10.6442 12.6796C10.2686 12.837 9.87599 12.9413 9.47387 12.9963C9.52509 12.9887 9.5744 12.983 9.62562 12.9755C9.22729 13.0267 8.82707 13.0267 8.43065 12.9755C8.48186 12.983 8.53118 12.9887 8.58239 12.9963C8.18027 12.9413 7.78764 12.8351 7.41208 12.6796C7.4576 12.6985 7.50313 12.7175 7.54865 12.7365C7.2869 12.6245 7.03652 12.4918 6.79942 12.3343C6.73683 12.2926 6.67613 12.2509 6.61544 12.2054C6.58319 12.1807 6.50922 12.1067 6.62872 12.2167C6.60026 12.1921 6.56992 12.1693 6.53957 12.1466C6.42576 12.0536 6.31575 11.9531 6.21143 11.8488C6.1109 11.7482 6.01606 11.6439 5.92501 11.5339C5.89846 11.5017 5.86811 11.4675 5.84345 11.4334C5.86052 11.4542 5.8757 11.477 5.89277 11.4979C5.87949 11.4808 5.86621 11.4637 5.85483 11.4467C5.81121 11.386 5.76758 11.3253 5.72585 11.2627C5.56842 11.0256 5.43565 10.7752 5.32374 10.5134C5.3427 10.559 5.36167 10.6045 5.38064 10.65C5.22321 10.2744 5.11888 9.88182 5.06388 9.4797C5.07147 9.53091 5.07716 9.58023 5.08474 9.63144C5.03353 9.23312 5.03353 8.8329 5.08474 8.43648C5.07716 8.48769 5.07147 8.537 5.06388 8.58822C5.11888 8.1861 5.2251 7.79347 5.38064 7.41791C5.36167 7.46343 5.3427 7.50895 5.32374 7.55448C5.43565 7.29272 5.56842 7.04235 5.72585 6.80525C5.76758 6.74266 5.80931 6.68196 5.85483 6.62126C5.87949 6.58902 5.95346 6.51505 5.84345 6.63454C5.86811 6.60609 5.89087 6.57574 5.91363 6.54539C6.00657 6.43159 6.1071 6.32157 6.21143 6.21725C6.31195 6.11672 6.41628 6.02188 6.52629 5.93084C6.55853 5.90428 6.59268 5.87394 6.62682 5.84928C6.60595 5.86635 6.58319 5.88152 6.56233 5.89859C6.5794 5.88532 6.59647 5.87204 6.61354 5.86066C6.67424 5.81703 6.73493 5.77341 6.79753 5.73168C7.03462 5.57425 7.285 5.44147 7.54675 5.32956C7.50123 5.34853 7.45571 5.3675 7.41019 5.38647C7.78575 5.22903 8.17838 5.12471 8.58049 5.0697C8.52928 5.07729 8.47997 5.08298 8.42875 5.09057C8.82707 5.03936 9.22729 5.03936 9.62372 5.09057C9.57251 5.08298 9.52319 5.07729 9.47198 5.0697C9.87409 5.12471 10.2667 5.23093 10.6423 5.38647C10.5968 5.3675 10.5512 5.34853 10.5057 5.32956C10.7675 5.44147 11.0178 5.57425 11.2549 5.73168C11.3175 5.77341 11.3782 5.81514 11.4389 5.86066C11.4712 5.88532 11.5451 5.95929 11.4257 5.84928C11.4541 5.87394 11.4845 5.8967 11.5148 5.91946C11.6286 6.0124 11.7386 6.11293 11.8429 6.21725C11.9435 6.31778 12.0383 6.4221 12.1294 6.53212C12.1559 6.56436 12.1863 6.5985 12.2109 6.63264C12.1938 6.61178 12.1787 6.58902 12.1616 6.56815C12.1749 6.58523 12.1882 6.6023 12.1995 6.61937C12.2432 6.68006 12.2868 6.74076 12.3285 6.80335C12.4859 7.04045 12.6187 7.29082 12.7306 7.55258C12.7117 7.50706 12.6927 7.46153 12.6737 7.41601C12.8312 7.79157 12.9355 8.1842 12.9905 8.58632C12.9829 8.53511 12.9772 8.48579 12.9696 8.43458C13.0208 8.8329 13.0208 9.23312 12.9696 9.62954C12.9772 9.57833 12.9829 9.52902 12.9905 9.4778C12.945 9.80784 12.8672 10.1303 12.7534 10.4452C12.6529 10.7259 12.8672 11.0806 13.1517 11.1451C13.4723 11.2171 13.7435 11.0483 13.8516 10.7467C14.2158 9.73956 14.2443 8.60149 13.9389 7.57534C13.6506 6.60799 13.0721 5.7165 12.2849 5.08108C11.8562 4.73587 11.401 4.46843 10.8908 4.26168C10.3957 4.06062 9.8684 3.9544 9.33541 3.91836C8.29787 3.84818 7.2262 4.11942 6.3442 4.66569C5.49255 5.19489 4.77747 5.98016 4.37156 6.90009C4.14015 7.4255 3.996 7.96039 3.9334 8.53131C3.8746 9.06431 3.91633 9.60678 4.02634 10.1322C4.45691 12.1598 6.19056 13.7949 8.24287 14.087C8.81569 14.1685 9.37335 14.1628 9.94427 14.0661C10.4583 13.9788 10.959 13.7987 11.4219 13.5578C12.3095 13.0931 13.0683 12.34 13.5387 11.4542C13.6601 11.2266 13.7606 10.9895 13.8497 10.7486C13.899 10.6178 13.8611 10.4281 13.7928 10.3105C13.7245 10.1929 13.588 10.0791 13.4533 10.0487C13.1309 9.97476 12.8634 10.1455 12.7534 10.4452Z" fill="#161616"/>
<path d="M13.7882 1.35571C12.2708 0.413017 10.4651 -0.0649697 8.67829 0.00710765C6.86877 0.0810818 5.07822 0.693739 3.63288 1.79197C2.81727 2.41032 2.11167 3.14058 1.53505 3.98843C1.02482 4.73955 0.63408 5.57793 0.374222 6.44665C-0.132216 8.14047 -0.124629 9.99741 0.396984 11.6874C0.973602 13.552 2.1477 15.1699 3.71444 16.3269C5.16926 17.4043 6.96361 17.9999 8.76934 18.0549C10.5447 18.108 12.3429 17.6205 13.8432 16.6684C15.5029 15.6138 16.7756 14.0432 17.4755 12.209C18.1109 10.5475 18.2153 8.69243 17.815 6.96257C17.394 5.14357 16.3792 3.45923 14.9699 2.23392C14.6 1.91336 14.2036 1.61747 13.7882 1.35571C13.5359 1.19828 13.1509 1.29312 13.0105 1.56056C12.8626 1.83939 12.9441 2.16943 13.2154 2.33824C13.3576 2.42739 13.4961 2.51843 13.6327 2.61517C13.7009 2.66449 13.7692 2.7138 13.8356 2.76501C13.8489 2.7745 13.8622 2.78588 13.8754 2.79536C13.7541 2.70811 13.8148 2.74794 13.8413 2.76881C13.8773 2.79726 13.9115 2.82571 13.9475 2.85416C14.2188 3.07419 14.4767 3.31129 14.7195 3.56166C14.839 3.68495 14.9547 3.81203 15.0647 3.94291C15.1197 4.0074 15.1747 4.07379 15.2278 4.13828C15.2525 4.16863 15.2772 4.20087 15.3018 4.23122C15.3398 4.28054 15.262 4.18001 15.2639 4.1838C15.281 4.20467 15.298 4.22932 15.3151 4.25019C15.5162 4.51763 15.7001 4.79646 15.8671 5.08477C16.0435 5.39015 16.199 5.70501 16.3375 6.02936C16.3185 5.98384 16.2995 5.93832 16.2806 5.89279C16.5689 6.58132 16.7661 7.30399 16.8667 8.04184C16.8591 7.99062 16.8534 7.94131 16.8458 7.89009C16.9463 8.64501 16.9463 9.40941 16.8458 10.1624C16.8534 10.1112 16.8591 10.0619 16.8667 10.0107C16.7661 10.7504 16.5689 11.4731 16.2806 12.1597C16.2995 12.1142 16.3185 12.0687 16.3375 12.0232C16.18 12.3949 15.996 12.7572 15.7874 13.1024C15.6793 13.2807 15.5655 13.4552 15.4441 13.6259C15.3853 13.7075 15.3189 13.7853 15.2639 13.8706C15.3587 13.7208 15.2544 13.882 15.2278 13.9142C15.1918 13.9579 15.1558 14.0015 15.1197 14.0451C14.8333 14.3884 14.5185 14.7071 14.1827 15.0011C14.105 15.0675 14.0272 15.1339 13.9475 15.1984C13.9039 15.2344 13.8603 15.2704 13.8148 15.3046C13.8223 15.2989 13.9248 15.2211 13.8489 15.278C13.8223 15.2989 13.7958 15.3179 13.7673 15.3387C13.5966 15.4639 13.4221 15.5853 13.2419 15.6972C12.855 15.94 12.4472 16.1524 12.0261 16.3307C12.0716 16.3118 12.1171 16.2928 12.1627 16.2738C11.4741 16.5621 10.7515 16.7594 10.0136 16.8599C10.0648 16.8523 10.1141 16.8467 10.1654 16.8391C9.41045 16.9396 8.64605 16.9396 7.89303 16.8391C7.94424 16.8467 7.99356 16.8523 8.04477 16.8599C7.30503 16.7594 6.58236 16.5621 5.89573 16.2738C5.94125 16.2928 5.98677 16.3118 6.03229 16.3307C5.66053 16.1733 5.29824 15.9893 4.95303 15.7807C4.77473 15.6726 4.60023 15.5587 4.42952 15.4374C4.34796 15.3786 4.27019 15.3122 4.18484 15.2572C4.33468 15.352 4.17346 15.2477 4.14121 15.2211C4.09759 15.1851 4.05396 15.149 4.01033 15.113C3.66702 14.8266 3.34836 14.5117 3.05436 14.176C2.98797 14.0982 2.92159 14.0205 2.8571 13.9408C2.82106 13.8972 2.78502 13.8535 2.75088 13.808C2.75657 13.8156 2.83434 13.918 2.77743 13.8422C2.75657 13.8156 2.7376 13.7891 2.71674 13.7606C2.59155 13.5899 2.47016 13.4154 2.35825 13.2352C2.11546 12.8483 1.90302 12.4405 1.72472 12.0194C1.74369 12.0649 1.76266 12.1104 1.78163 12.1559C1.49332 11.4674 1.29605 10.7447 1.19552 10.0069C1.20311 10.0581 1.2088 10.1074 1.21639 10.1586C1.11586 9.40372 1.11586 8.63932 1.21639 7.8863C1.2088 7.93751 1.20311 7.98683 1.19552 8.03804C1.29605 7.2983 1.49332 6.57563 1.78163 5.889C1.76266 5.93452 1.74369 5.98004 1.72472 6.02557C1.88216 5.6538 2.06614 5.29152 2.27479 4.9463C2.3829 4.76801 2.49671 4.5935 2.6181 4.42279C2.6769 4.34123 2.74329 4.26347 2.7983 4.17811C2.70346 4.32796 2.80778 4.16673 2.83434 4.13448C2.87037 4.09086 2.90641 4.04723 2.94245 4.00361C3.22886 3.66029 3.54373 3.34163 3.87946 3.04763C3.95723 2.98125 4.03499 2.91486 4.11466 2.85037C4.15828 2.81433 4.20191 2.77829 4.24743 2.74415C4.23984 2.74984 4.13742 2.82761 4.21329 2.77071C4.23984 2.74984 4.2664 2.73087 4.29485 2.71001C4.46556 2.58482 4.64006 2.46343 4.82026 2.35152C5.2072 2.10873 5.615 1.89629 6.03609 1.718C5.99057 1.73696 5.94504 1.75593 5.89952 1.7749C6.58805 1.48659 7.31072 1.28933 8.04856 1.1888C7.99735 1.19638 7.94803 1.20207 7.89682 1.20966C8.65174 1.10913 9.41614 1.10913 10.1692 1.20966C10.1179 1.20207 10.0686 1.19638 10.0174 1.1888C10.7572 1.28933 11.4798 1.48659 12.1665 1.7749C12.1209 1.75593 12.0754 1.73696 12.0299 1.718C12.4415 1.8925 12.8379 2.09735 13.2173 2.33255C13.4695 2.48998 13.8546 2.39514 13.9949 2.1277C14.1391 1.85646 14.0575 1.52453 13.7882 1.35571Z" fill="#161616"/>
<path d="M11.8429 6.21328C11.951 6.3214 12.0534 6.43521 12.1502 6.55281C12.171 6.57746 12.19 6.60402 12.2109 6.62868C12.1009 6.50918 12.1748 6.58316 12.1995 6.6154C12.2431 6.6761 12.2867 6.73679 12.3285 6.79939C12.4859 7.03648 12.6187 7.28686 12.7306 7.54861C12.7116 7.50309 12.6926 7.45757 12.6737 7.41205C12.8311 7.78761 12.9354 8.18024 12.9904 8.58235C12.9829 8.53114 12.9772 8.48182 12.9696 8.43061C13.0208 8.82893 13.0208 9.22915 12.9696 9.62558C12.9772 9.57437 12.9829 9.52505 12.9904 9.47384C12.9354 9.87595 12.8292 10.2686 12.6737 10.6441C12.6926 10.5986 12.7116 10.5531 12.7306 10.5076C12.6187 10.7693 12.4859 11.0197 12.3285 11.2568C12.2867 11.3194 12.245 11.3801 12.1995 11.4408C12.1748 11.473 12.1009 11.547 12.2109 11.4275C12.1862 11.456 12.1634 11.4863 12.1407 11.5167C12.0477 11.6305 11.9472 11.7405 11.8429 11.8448C11.7424 11.9453 11.638 12.0402 11.528 12.1312C11.4958 12.1578 11.4616 12.1881 11.4275 12.2128C11.4484 12.1957 11.4711 12.1805 11.492 12.1635C11.4749 12.1767 11.4578 12.19 11.4408 12.2014C11.3801 12.245 11.3194 12.2886 11.2568 12.3304C11.0197 12.4878 10.7693 12.6206 10.5076 12.7325C10.5531 12.7135 10.5986 12.6946 10.6441 12.6756C10.2686 12.833 9.87594 12.9373 9.47382 12.9924C9.52503 12.9848 9.57435 12.9791 9.62556 12.9715C9.22724 13.0227 8.82702 13.0227 8.4306 12.9715C8.48181 12.9791 8.53113 12.9848 8.58234 12.9924C8.18022 12.9373 7.78759 12.8311 7.41203 12.6756C7.45755 12.6946 7.50307 12.7135 7.5486 12.7325C7.28684 12.6206 7.03647 12.4878 6.79937 12.3304C6.73678 12.2886 6.67608 12.2469 6.61538 12.2014C6.58314 12.1767 6.50917 12.1028 6.62866 12.2128C6.60021 12.1881 6.56986 12.1654 6.53951 12.1426C6.42571 12.0497 6.3157 11.9491 6.21137 11.8448C6.11084 11.7443 6.01601 11.64 5.92496 11.5299C5.89841 11.4977 5.86806 11.4636 5.8434 11.4294C5.86047 11.4503 5.87564 11.473 5.89271 11.4939C5.87944 11.4768 5.86616 11.4598 5.85478 11.4427C5.81115 11.382 5.76753 11.3213 5.7258 11.2587C5.56837 11.0216 5.43559 10.7712 5.32368 10.5095C5.34265 10.555 5.36162 10.6005 5.38059 10.646C5.22315 10.2705 5.11883 9.87785 5.06383 9.47573C5.07141 9.52695 5.0771 9.57626 5.08469 9.62748C5.03348 9.22915 5.03348 8.82893 5.08469 8.43251C5.0771 8.48372 5.07141 8.53304 5.06383 8.58425C5.11883 8.18213 5.22505 7.7895 5.38059 7.41394C5.36162 7.45946 5.34265 7.50499 5.32368 7.55051C5.43559 7.28875 5.56837 7.03838 5.7258 6.80128C5.76753 6.73869 5.80926 6.67799 5.85478 6.6173C5.87944 6.58505 5.95341 6.51108 5.8434 6.63057C5.86806 6.60212 5.89082 6.57177 5.91358 6.54143C6.00652 6.42762 6.10705 6.31761 6.21137 6.21328C6.3119 6.11276 6.41622 6.01792 6.52624 5.92687C6.55848 5.90032 6.59262 5.86997 6.62677 5.84531C6.6059 5.86238 6.58314 5.87756 6.56228 5.89463C6.57935 5.88135 6.59642 5.86807 6.61349 5.85669C6.67418 5.81307 6.73488 5.76944 6.79748 5.72771C7.03457 5.57028 7.28495 5.4375 7.5467 5.32559C7.50118 5.34456 7.45565 5.36353 7.41013 5.3825C7.78569 5.22507 8.17833 5.12074 8.58044 5.06574C8.52923 5.07332 8.47991 5.07901 8.4287 5.0866C8.82702 5.03539 9.22724 5.03539 9.62367 5.0866C9.57245 5.07901 9.52314 5.07332 9.47192 5.06574C9.87404 5.12074 10.2667 5.22696 10.6422 5.3825C10.5967 5.36353 10.5512 5.34456 10.5057 5.32559C10.7674 5.4375 11.0178 5.57028 11.2549 5.72771C11.3118 5.76565 11.3687 5.80548 11.4256 5.84721C11.4578 5.86997 11.5584 5.95722 11.4256 5.84531C11.4503 5.86617 11.4768 5.88514 11.5015 5.90601C11.621 6.00274 11.7348 6.10517 11.8429 6.21328C12.0553 6.42383 12.4385 6.4409 12.6471 6.21328C12.8558 5.98757 12.8728 5.63287 12.6471 5.40905C11.9245 4.69207 10.9837 4.17994 9.97836 3.99975C8.88203 3.80438 7.77431 3.95043 6.77092 4.43221C4.89122 5.33318 3.71143 7.43291 3.92956 9.50798C3.99025 10.0808 4.13251 10.6157 4.36392 11.143C4.56497 11.602 4.8438 12.0193 5.17004 12.3987C5.83012 13.1669 6.74247 13.7283 7.7212 13.9825C8.75115 14.2518 9.88352 14.2006 10.8755 13.8042C11.382 13.6012 11.8315 13.3395 12.2583 12.9999C12.6623 12.6794 13.0075 12.2886 13.2939 11.8619C14.4642 10.1282 14.4225 7.69466 13.163 6.01792C13.0037 5.80358 12.8349 5.60063 12.6471 5.41095C12.4366 5.19851 12.0496 5.18523 11.8429 5.41095C11.6342 5.63667 11.6191 5.98757 11.8429 6.21328Z" fill="#161616"/>
<path d="M4.15142 2.25116C4.47767 2.5774 4.80391 2.90365 5.13206 3.23179C5.65556 3.7553 6.17718 4.27691 6.70069 4.80042C6.82018 4.91991 6.93968 5.03941 7.05918 5.15891C7.14263 4.84215 7.22609 4.52539 7.30955 4.20862C6.59636 4.47228 5.94577 4.8725 5.40519 5.41118C4.86461 5.94986 4.46629 6.60046 4.20264 7.31554C4.5194 7.23208 4.83616 7.14862 5.15292 7.06516C4.82667 6.73892 4.50043 6.41267 4.17229 6.08453C3.64878 5.56102 3.12717 5.03941 2.60366 4.5159C2.48416 4.39641 2.36466 4.27691 2.24517 4.15741C2.27552 4.38692 2.30397 4.61643 2.33432 4.84784C2.41777 4.71506 2.50313 4.58608 2.59228 4.459C2.6378 4.39451 2.68332 4.33192 2.73074 4.26932C2.7554 4.23708 2.85972 4.12137 2.74402 4.25035C2.76678 4.2257 2.78575 4.19724 2.80661 4.17069C3.00577 3.92032 3.22011 3.68132 3.44582 3.45561C3.67154 3.22989 3.91053 3.01556 4.16091 2.81639C4.18746 2.79553 4.21402 2.77467 4.24057 2.7538C4.10211 2.86571 4.22919 2.76328 4.25954 2.74052C4.32213 2.6931 4.38662 2.64758 4.44922 2.60206C4.5763 2.51291 4.70718 2.42566 4.83806 2.3441C5.09033 2.18667 5.21172 1.83007 5.04291 1.56642C4.87978 1.31415 4.53457 1.19276 4.26523 1.36157C3.08923 2.09372 2.08963 3.09332 1.35179 4.26932C1.21901 4.48176 1.26643 4.78524 1.44094 4.95975C1.76718 5.28599 2.09343 5.61224 2.42157 5.94038C2.94508 6.46389 3.46669 6.9855 3.9902 7.50901C4.10969 7.62851 4.22919 7.748 4.34869 7.8675C4.49284 8.01165 4.70718 8.06856 4.90255 8.01355C5.1074 7.95665 5.22879 7.8068 5.30087 7.61523C5.32553 7.54694 5.35208 7.47866 5.38053 7.41227C5.36156 7.4578 5.3426 7.50332 5.32363 7.54884C5.43554 7.28709 5.56831 7.03671 5.72574 6.79962C5.76747 6.73702 5.8092 6.67633 5.85472 6.61563C5.87938 6.58338 5.95336 6.50941 5.84334 6.62891C5.868 6.60045 5.89076 6.57011 5.91353 6.53976C6.00647 6.42595 6.107 6.31594 6.21132 6.21162C6.31185 6.11109 6.41617 6.01625 6.52618 5.9252C6.55843 5.89865 6.59257 5.8683 6.62671 5.84364C6.60585 5.86071 6.58309 5.87589 6.56222 5.89296C6.57929 5.87968 6.59636 5.8664 6.61343 5.85502C6.67413 5.8114 6.73483 5.76777 6.79742 5.72604C7.03452 5.56861 7.28489 5.43584 7.54665 5.32393C7.50112 5.3429 7.4556 5.36186 7.41008 5.38083C7.47647 5.35238 7.54475 5.32582 7.61303 5.30117C7.80461 5.23099 7.95445 5.1077 8.01136 4.90284C8.06447 4.70748 8.00756 4.49314 7.8653 4.34899C7.53906 4.02274 7.21281 3.6965 6.88467 3.36835C6.36116 2.84485 5.83955 2.32323 5.31604 1.79972C5.19655 1.68023 5.07705 1.56073 4.95755 1.44123C4.74701 1.23069 4.36007 1.21552 4.15332 1.44123C3.94278 1.67264 3.92571 2.02544 4.15142 2.25116Z" fill="#161616"/>
<path d="M12.8993 10.9987C13.2256 11.325 13.5518 11.6512 13.8799 11.9794C14.4035 12.5029 14.9251 13.0245 15.4486 13.548C15.5681 13.6675 15.6876 13.787 15.8071 13.9065C15.7767 13.677 15.7483 13.4475 15.7179 13.2161C15.6345 13.3488 15.5491 13.4778 15.46 13.6049C15.4144 13.6694 15.3689 13.732 15.3215 13.7946C15.2968 13.8268 15.1925 13.9425 15.3082 13.8135C15.2855 13.8382 15.2665 13.8667 15.2456 13.8932C15.0465 14.1436 14.8321 14.3826 14.6064 14.6083C14.3807 14.834 14.1417 15.0483 13.8913 15.2475C13.8648 15.2684 13.8382 15.2892 13.8117 15.3101C13.9501 15.1982 13.823 15.3006 13.7927 15.3234C13.7301 15.3708 13.6656 15.4163 13.603 15.4618C13.4759 15.551 13.3451 15.6382 13.2142 15.7198C13.4437 15.7502 13.6732 15.7786 13.9046 15.809C13.5784 15.4827 13.2521 15.1565 12.924 14.8283C12.4005 14.3048 11.8789 13.7832 11.3553 13.2597C11.2358 13.1402 11.1163 13.0207 10.9969 12.9012C10.9134 13.218 10.8299 13.5347 10.7465 13.8515C11.4597 13.5878 12.1103 13.1876 12.6508 12.6489C13.1914 12.1102 13.5897 11.4597 13.8534 10.7446C13.9027 10.6137 13.8648 10.424 13.7965 10.3064C13.7282 10.1888 13.5916 10.075 13.457 10.0447C13.1345 9.97068 12.8671 10.1433 12.7571 10.443C12.7324 10.5113 12.7058 10.5795 12.6774 10.6459C12.6964 10.6004 12.7153 10.5549 12.7343 10.5094C12.6224 10.7711 12.4896 11.0215 12.3322 11.2586C12.2905 11.3212 12.2487 11.3819 12.2032 11.4426C12.1785 11.4748 12.1046 11.5488 12.2146 11.4293C12.1899 11.4578 12.1672 11.4881 12.1444 11.5185C12.0515 11.6323 11.9509 11.7423 11.8466 11.8466C11.7461 11.9471 11.6418 12.042 11.5317 12.133C11.4995 12.1596 11.4654 12.1899 11.4312 12.2146C11.4521 12.1975 11.4748 12.1823 11.4957 12.1653C11.4786 12.1785 11.4616 12.1918 11.4445 12.2032C11.3838 12.2468 11.3231 12.2904 11.2605 12.3322C11.0234 12.4896 10.773 12.6224 10.5113 12.7343C10.5568 12.7153 10.6023 12.6963 10.6478 12.6774C10.5815 12.7058 10.5132 12.7324 10.4449 12.757C10.2533 12.8272 10.1035 12.9505 10.0466 13.1554C9.99346 13.3507 10.0504 13.5651 10.1926 13.7092C10.5189 14.0355 10.8451 14.3617 11.1733 14.6899C11.6968 15.2134 12.2184 15.735 12.7419 16.2585C12.8614 16.378 12.9809 16.4975 13.1004 16.617C13.2749 16.7915 13.5765 16.8389 13.7908 16.7061C14.963 15.9664 15.9626 14.9668 16.7004 13.7908C16.8332 13.5783 16.7858 13.2749 16.6113 13.1004C16.2851 12.7741 15.9588 12.4479 15.6307 12.1197C15.1072 11.5962 14.5855 11.0746 14.062 10.5511C13.9425 10.4316 13.823 10.3121 13.7035 10.1926C13.493 9.98207 13.1061 9.96689 12.8993 10.1926C12.6907 10.4202 12.6736 10.773 12.8993 10.9987Z" fill="#161616"/>
<path d="M5.40513 12.651C5.94761 13.1896 6.59441 13.5899 7.30949 13.8535C7.22604 13.5368 7.14258 13.22 7.05912 12.9032C6.73287 13.2295 6.40663 13.5557 6.07849 13.8839C5.55498 14.4074 5.03337 14.929 4.50986 15.4525C4.39036 15.572 4.27086 15.6915 4.15137 15.811C4.38088 15.7806 4.61039 15.7522 4.84179 15.7218C4.70902 15.6384 4.58004 15.553 4.45295 15.4639C4.38846 15.4184 4.32587 15.3728 4.26328 15.3254C4.23103 15.3008 4.11533 15.1964 4.24431 15.3121C4.21965 15.2894 4.1912 15.2704 4.16464 15.2495C3.91427 15.0504 3.67528 14.836 3.44956 14.6103C3.22385 14.3846 3.00951 14.1456 2.81035 13.8952C2.78948 13.8687 2.76862 13.8421 2.74776 13.8156C2.85966 13.954 2.75724 13.827 2.73448 13.7966C2.68706 13.734 2.64154 13.6695 2.59601 13.6069C2.50687 13.4798 2.41961 13.349 2.33805 13.2181C2.3077 13.4476 2.27925 13.6771 2.2489 13.9085C2.57515 13.5823 2.90139 13.256 3.22954 12.9279C3.75304 12.4044 4.27466 11.8828 4.79817 11.3593C4.91766 11.2398 5.03716 11.1203 5.15666 11.0008C4.8399 10.9173 4.52313 10.8339 4.20637 10.7504C4.46623 11.4636 4.86645 12.1085 5.40513 12.651C5.61568 12.8634 6.00262 12.8767 6.20936 12.651C6.41801 12.4233 6.43318 12.0724 6.20936 11.8467C6.10125 11.7386 5.99882 11.6248 5.90209 11.5072C5.88122 11.4825 5.86226 11.456 5.84139 11.4313C5.9514 11.5508 5.87743 11.4769 5.85277 11.4446C5.80915 11.3839 5.76552 11.3232 5.72379 11.2606C5.56636 11.0235 5.43359 10.7732 5.32168 10.5114C5.34064 10.5569 5.35961 10.6024 5.37858 10.648C5.35013 10.5816 5.32357 10.5133 5.29891 10.445C5.22873 10.2534 5.10544 10.1036 4.90059 10.0467C4.70522 9.99358 4.49089 10.0505 4.34673 10.1927C4.02049 10.519 3.69424 10.8452 3.3661 11.1734C2.84259 11.6969 2.32098 12.2185 1.79747 12.742C1.67798 12.8615 1.55848 12.981 1.43898 13.1005C1.26448 13.275 1.21706 13.5766 1.34983 13.7909C2.08958 14.9669 3.08917 15.9665 4.26517 16.7044C4.47761 16.8371 4.7811 16.7897 4.9556 16.6152C5.28184 16.289 5.60809 15.9627 5.93623 15.6346C6.45974 15.1111 6.98135 14.5895 7.50486 14.066C7.62436 13.9465 7.74385 13.827 7.86335 13.7075C8.00751 13.5633 8.06441 13.349 8.0094 13.1536C7.9525 12.9488 7.80265 12.8274 7.61108 12.7553C7.5428 12.7306 7.47451 12.7041 7.40813 12.6756C7.45365 12.6946 7.49917 12.7136 7.54469 12.7325C7.28294 12.6206 7.03256 12.4878 6.79547 12.3304C6.73856 12.2925 6.68166 12.2526 6.62476 12.2109C6.59251 12.1881 6.49198 12.1009 6.62476 12.2128C6.6001 12.1919 6.57354 12.173 6.54889 12.1521C6.43129 12.0554 6.31748 11.9529 6.20936 11.8448C5.99693 11.6343 5.61378 11.6172 5.40513 11.8448C5.19649 12.0724 5.17942 12.4271 5.40513 12.651Z" fill="#161616"/>
<path d="M14.6065 3.44985C14.8322 3.67557 15.0466 3.91456 15.2457 4.16494C15.2666 4.19149 15.2856 4.21994 15.3083 4.2446C15.1926 4.11562 15.2969 4.23132 15.3216 4.26357C15.369 4.32616 15.4145 4.39065 15.4601 4.45325C15.5492 4.58033 15.6365 4.71121 15.718 4.84208C15.7484 4.61257 15.7768 4.38306 15.8072 4.15166C15.4809 4.4779 15.1547 4.80415 14.8265 5.13229C14.303 5.6558 13.7814 6.17741 13.2579 6.70092C13.1384 6.82042 13.0189 6.93991 12.8994 7.05941C13.2162 7.14287 13.5329 7.22633 13.8497 7.30978C13.586 6.5966 13.1858 5.946 12.6471 5.40543C12.1085 4.86484 11.4579 4.46652 10.7428 4.20287C10.8262 4.51963 10.9097 4.83639 10.9932 5.15315C11.3194 4.82691 11.6457 4.50066 11.9738 4.17252C12.4973 3.64901 13.0189 3.1274 13.5424 2.60389C13.6619 2.48439 13.7814 2.3649 13.9009 2.2454C13.6714 2.27575 13.4419 2.3042 13.2105 2.33455C13.3433 2.41801 13.4722 2.50336 13.5993 2.59251C13.6638 2.63803 13.7264 2.68356 13.789 2.73098C13.8042 2.74236 13.9199 2.82961 13.8383 2.76891C13.7568 2.70632 13.8725 2.79736 13.8876 2.80874C14.1418 3.0117 14.3789 3.22414 14.6065 3.44985C14.8171 3.66039 15.204 3.67746 15.4107 3.44985C15.6194 3.22224 15.6365 2.86944 15.4107 2.64562C14.9214 2.15815 14.3732 1.72379 13.7871 1.35582C13.5747 1.22304 13.2712 1.27046 13.0967 1.44496C12.7704 1.77121 12.4442 2.09745 12.116 2.4256C11.5925 2.9491 11.0709 3.47072 10.5474 3.99423C10.4279 4.11372 10.3084 4.23322 10.1889 4.35272C10.0448 4.49687 9.98787 4.71121 10.0429 4.90657C10.0998 5.11143 10.2496 5.23282 10.4412 5.3049C10.5095 5.32955 10.5778 5.35611 10.6442 5.38456C10.5986 5.36559 10.5531 5.34662 10.5076 5.32766C10.7693 5.43957 11.0197 5.57234 11.2568 5.72977C11.3194 5.7715 11.3801 5.81323 11.4408 5.85875C11.473 5.88341 11.547 5.95739 11.4275 5.84737C11.456 5.87203 11.4863 5.89479 11.5167 5.91755C11.6305 6.0105 11.7405 6.11102 11.8448 6.21535C11.9453 6.31588 12.0402 6.4202 12.1312 6.53021C12.1578 6.56246 12.1881 6.5966 12.2128 6.63074C12.1957 6.60988 12.1805 6.58711 12.1635 6.56625C12.1767 6.58332 12.19 6.60039 12.2014 6.61746C12.245 6.67816 12.2887 6.73886 12.3304 6.80145C12.4878 7.03855 12.6206 7.28892 12.7325 7.55068C12.7135 7.50515 12.6946 7.45963 12.6756 7.41411C12.704 7.48049 12.7306 7.54878 12.7553 7.61706C12.8254 7.80864 12.9487 7.95848 13.1536 8.01538C13.349 8.06849 13.5633 8.01159 13.7074 7.86933C14.0337 7.54309 14.3599 7.21684 14.6881 6.8887C15.2116 6.36519 15.7332 5.84358 16.2567 5.32007C16.3762 5.20057 16.4957 5.08108 16.6152 4.96158C16.7897 4.78708 16.8371 4.48549 16.7043 4.27115C16.3364 3.68505 15.902 3.13688 15.4145 2.64752C15.204 2.43698 14.8171 2.4218 14.6103 2.64752C14.396 2.87323 14.3808 3.22603 14.6065 3.44985Z" fill="#161616"/>
</svg>
