<svg width="44" height="56" viewBox="0 0 44 56" fill="none" xmlns="http://www.w3.org/2000/svg">
<path d="M38.5777 0H4.97777C2.23999 0 0 2.23999 0 4.97777V51.0221C0 53.7599 2.23999 55.9999 4.97777 55.9999H38.5777C41.3155 55.9999 43.5555 53.7599 43.5555 51.0221V4.97777C43.5555 2.23999 41.3155 0 38.5777 0ZM6.22221 53.511H4.97777C3.60888 53.511 2.48888 52.391 2.48888 51.0221V4.97777C2.48888 3.60888 3.60888 2.48888 4.97777 2.48888H6.22221V53.511ZM41.0666 51.0221C41.0666 52.391 39.9466 53.511 38.5777 53.511H8.71109V2.48888H38.5777C39.9466 2.48888 41.0666 3.60888 41.0666 4.97777V51.0221Z" fill="#FFA9BC"/>
<path d="M25.4487 12.9421C25.0753 12.9421 24.702 12.9421 24.3287 12.9421C20.2842 13.1288 16.7376 15.431 14.9331 19.1021C13.0665 22.8977 13.3154 27.191 15.742 30.6754L23.8931 42.5598C24.142 42.871 24.5153 43.1198 24.9509 43.1198C25.3864 43.1198 25.7598 42.9332 26.0087 42.5598L34.1597 30.6754C36.5242 27.191 36.8353 22.8977 34.9686 19.1021C33.0397 15.431 29.4931 13.0666 25.4487 12.9421ZM32.0442 29.2443L24.8887 39.6354L17.7331 29.2443C15.8665 26.5065 15.6176 23.1466 17.1109 20.1599C18.542 17.2977 21.2798 15.4932 24.3909 15.3688C24.702 15.3688 25.0131 15.3688 25.3242 15.3688C28.4353 15.4932 31.1731 17.2977 32.6042 20.1599C34.0975 23.1466 33.9109 26.5065 32.0442 29.2443Z" fill="#FF2D5C"/>
<path d="M24.8889 19.2891C22.1511 19.2891 19.9111 21.5291 19.9111 24.2668C19.9111 27.0046 22.1511 29.2446 24.8889 29.2446C27.6267 29.2446 29.8667 27.0046 29.8667 24.2668C29.8667 21.5291 27.6267 19.2891 24.8889 19.2891ZM24.8889 26.7557C23.52 26.7557 22.4 25.6357 22.4 24.2668C22.4 22.8979 23.52 21.7779 24.8889 21.7779C26.2578 21.7779 27.3778 22.8979 27.3778 24.2668C27.3778 25.6357 26.2578 26.7557 24.8889 26.7557Z" fill="#FF2D5C"/>
</svg>
