<svg width="75" height="75" viewBox="0 0 75 75" fill="none" xmlns="http://www.w3.org/2000/svg">
<path d="M43.9444 23.731H31.5921C30.563 23.731 29.7207 24.5724 29.7207 25.6023V49.5652C29.7207 50.5943 30.563 51.4366 31.5921 51.4366H43.9444C44.9735 51.4366 45.8158 50.5959 45.8158 49.5652V25.6023C45.8158 24.5724 44.9735 23.731 43.9444 23.731ZM35.7924 25.0799H39.7441C39.8692 25.0799 39.9705 25.1812 39.9705 25.3071C39.9705 25.4321 39.8692 25.5335 39.7441 25.5335H35.7924C35.6673 25.5335 35.566 25.4321 35.566 25.3071C35.566 25.1812 35.6673 25.0799 35.7924 25.0799ZM37.7682 50.5017C37.2521 50.5017 36.8325 50.0829 36.8325 49.5652C36.8325 49.0475 37.2513 48.6295 37.7682 48.6295C38.2852 48.6295 38.7039 49.0475 38.7039 49.5652C38.7039 50.0829 38.2844 50.5017 37.7682 50.5017ZM44.5136 47.9741H31.0229V26.6987H44.5136V47.9741ZM39.0039 32.3437V31.2465H36.5341V32.3437H34.2954V43.8616H41.2426V32.3437H39.0039ZM40.3813 42.9743H35.1551V37.7844H40.3813V42.9743Z" fill="#B9B9B9"/>
<circle cx="37.7688" cy="37.5838" r="36.554" stroke="#B9B9B9"/>
</svg>
