<svg width="41" height="37" viewBox="0 0 41 37" fill="none" xmlns="http://www.w3.org/2000/svg">
<path d="M36.9 0.533203H4.1C3.01261 0.533203 1.96976 0.965166 1.20086 1.73407C0.431963 2.50296 0 3.54582 0 4.6332L0 26.4999C0 27.5873 0.431963 28.6301 1.20086 29.399C1.96976 30.1679 3.01261 30.5999 4.1 30.5999H32.3217L38.7805 35.7686C38.9817 35.9292 39.2241 36.0298 39.4798 36.0587C39.7356 36.0876 39.9944 36.0437 40.2263 35.932C40.4582 35.8203 40.6538 35.6454 40.7907 35.4275C40.9276 35.2095 41.0001 34.9573 41 34.6999V4.6332C41 3.54582 40.568 2.50296 39.7991 1.73407C39.0302 0.965166 37.9874 0.533203 36.9 0.533203V0.533203ZM38.2667 31.8545L33.6555 28.1645C33.4118 27.9721 33.1105 27.8672 32.8 27.8665H4.1C3.73754 27.8665 3.38992 27.7225 3.13362 27.4662C2.87732 27.2099 2.73333 26.8623 2.73333 26.4999V4.6332C2.73333 4.27074 2.87732 3.92312 3.13362 3.66682C3.38992 3.41052 3.73754 3.26654 4.1 3.26654H36.9C37.2625 3.26654 37.6101 3.41052 37.8664 3.66682C38.1227 3.92312 38.2667 4.27074 38.2667 4.6332V31.8545Z" fill="#FF7190"/>
<path d="M12.3004 16.9333C13.0552 16.9333 13.667 16.3214 13.667 15.5666C13.667 14.8118 13.0552 14.2 12.3004 14.2C11.5456 14.2 10.9337 14.8118 10.9337 15.5666C10.9337 16.3214 11.5456 16.9333 12.3004 16.9333Z" fill="#FF7190"/>
<path d="M20.4998 16.9333C21.2546 16.9333 21.8665 16.3214 21.8665 15.5666C21.8665 14.8118 21.2546 14.2 20.4998 14.2C19.7451 14.2 19.1332 14.8118 19.1332 15.5666C19.1332 16.3214 19.7451 16.9333 20.4998 16.9333Z" fill="#FF7190"/>
<path d="M28.7 16.9333C29.4548 16.9333 30.0667 16.3214 30.0667 15.5666C30.0667 14.8118 29.4548 14.2 28.7 14.2C27.9453 14.2 27.3334 14.8118 27.3334 15.5666C27.3334 16.3214 27.9453 16.9333 28.7 16.9333Z" fill="#FF7190"/>
</svg>
