<svg width="54" height="53" viewBox="0 0 54 53" fill="none" xmlns="http://www.w3.org/2000/svg">
<g filter="url(#filter0_d_1_253)">
<circle cx="25.1653" cy="23.3408" r="20.3408" fill="url(#paint0_linear_1_253)"/>
</g>
<path d="M21.7549 32.7287C21.0605 32.7287 21.1852 32.4454 20.9359 31.7467L18.9064 24.6463L31.5109 16.2996L32.9885 16.715L31.7601 20.2652L21.7549 32.7287Z" fill="#C8DAEA"/>
<path d="M21.2536 32.7292C21.8124 32.7292 22.0545 32.4744 22.3712 32.1833C22.8555 31.7285 29.077 25.8155 29.077 25.8155L25.2584 24.9058L21.7192 27.089L21.2536 32.5472V32.7292Z" fill="#A9C9DD"/>
<path d="M21.8326 26.865L30.5361 33.2468C31.5251 33.7831 32.2444 33.515 32.4962 32.3351L36.0387 15.7461C36.3984 14.2981 35.4813 13.6545 34.5282 14.0836L13.7406 22.0563C12.32 22.6284 12.338 23.4149 13.4888 23.7546L18.8296 25.4171L31.1835 17.6767C31.7589 17.3192 32.2984 17.5158 31.8668 17.9091L21.8326 26.865Z" fill="url(#paint1_linear_1_253)"/>
<defs>
<filter id="filter0_d_1_253" x="0.824493" y="0" width="52.6816" height="52.6816" filterUnits="userSpaceOnUse" color-interpolation-filters="sRGB">
<feFlood flood-opacity="0" result="BackgroundImageFix"/>
<feColorMatrix in="SourceAlpha" type="matrix" values="0 0 0 0 0 0 0 0 0 0 0 0 0 0 0 0 0 0 127 0" result="hardAlpha"/>
<feOffset dx="2" dy="3"/>
<feGaussianBlur stdDeviation="3"/>
<feComposite in2="hardAlpha" operator="out"/>
<feColorMatrix type="matrix" values="0 0 0 0 0 0 0 0 0 0 0 0 0 0 0 0 0 0 0.2 0"/>
<feBlend mode="normal" in2="BackgroundImageFix" result="effect1_dropShadow_1_253"/>
<feBlend mode="normal" in="SourceGraphic" in2="effect1_dropShadow_1_253" result="shape"/>
</filter>
<linearGradient id="paint0_linear_1_253" x1="31.1269" y1="9.4294" x2="20.9565" y2="33.16" gradientUnits="userSpaceOnUse">
<stop stop-color="#37AEE2"/>
<stop offset="1" stop-color="#1E96C8"/>
</linearGradient>
<linearGradient id="paint1_linear_1_253" x1="27.0459" y1="23.1745" x2="31.5033" y2="30.3487" gradientUnits="userSpaceOnUse">
<stop stop-color="#EFF7FC"/>
<stop offset="1" stop-color="white"/>
</linearGradient>
</defs>
</svg>
