<svg width="14" height="14" viewBox="0 0 14 14" fill="none" xmlns="http://www.w3.org/2000/svg">
<path fill-rule="evenodd" clip-rule="evenodd" d="M7 14C10.866 14 14 10.866 14 7C14 3.13401 10.866 0 7 0C3.13401 0 0 3.13401 0 7C0 10.866 3.13401 14 7 14ZM7 12.7273C10.1631 12.7273 12.7273 10.1631 12.7273 7C12.7273 3.83691 10.1631 1.27273 7 1.27273C3.83691 1.27273 1.27273 3.83691 1.27273 7C1.27273 10.1631 3.83691 12.7273 7 12.7273ZM8.11364 3.97939C8.11364 4.24304 8.02305 4.46808 7.84103 4.6531C7.65944 4.83907 7.4405 4.93182 7.18464 4.93182C6.92792 4.93182 6.70855 4.83907 6.52481 4.6531C6.3415 4.46808 6.24963 4.24304 6.24963 3.97939C6.24963 3.71621 6.3415 3.4907 6.52481 3.30332C6.70812 3.11595 6.92792 3.02273 7.18464 3.02273C7.4405 3.02273 7.65944 3.11642 7.84103 3.30332C8.02305 3.4907 8.11364 3.71621 8.11364 3.97939ZM8.02255 10.256C7.74928 10.3873 7.53074 10.4872 7.36806 10.556C7.20537 10.6249 7.01607 10.6591 6.80054 10.6591C6.46954 10.6591 6.21202 10.5606 6.02834 10.3645C5.84467 10.168 5.75283 9.9186 5.75283 9.61629C5.75283 9.49911 5.75958 9.37874 5.77345 9.25608C5.78731 9.13343 5.80943 8.99481 5.83979 8.84024L6.18166 7.36929C6.21202 7.2284 6.23788 7.0948 6.2585 6.9685C6.27949 6.84311 6.28961 6.72775 6.28961 6.62379C6.28961 6.43593 6.25775 6.30461 6.19403 6.23074C6.1303 6.15688 6.00885 6.11949 5.82855 6.11949C5.74008 6.11949 5.64937 6.13681 5.55678 6.1701C5.46382 6.20338 5.40909 5.81217 5.40909 5.81217C5.63288 5.70137 5.84692 5.60652 6.05158 5.52764C6.25625 5.44876 6.44968 5.40909 6.6326 5.40909C6.96135 5.40909 7.21512 5.50576 7.39317 5.69909C7.57123 5.89242 7.66044 6.1432 7.66044 6.45234C7.66044 6.51618 7.65444 6.6288 7.64207 6.78976C7.6297 6.95117 7.60684 7.0989 7.57348 7.23341L7.23311 8.69889C7.20537 8.81653 7.18026 8.95104 7.15852 9.10242C7.13603 9.25289 7.12516 9.36779 7.12516 9.44485C7.12516 9.63955 7.16077 9.77223 7.23236 9.84291C7.30433 9.91358 7.42841 9.94869 7.60459 9.94869C7.68743 9.94869 7.78152 9.93091 7.8861 9.8958C7.99069 9.86069 8.02255 10.256 8.02255 10.256Z" fill="#A0A0A0"/>
</svg>
