<svg width="115" height="36" viewBox="0 0 115 36" fill="none" xmlns="http://www.w3.org/2000/svg">
<path d="M7.35825 15.2154C7.33525 14.9974 7.32379 14.7785 7.32391 14.5594C7.32326 13.1521 7.77697 11.7813 8.61907 10.6462C9.46117 9.51116 10.6478 8.67108 12.0063 8.24812C13.3649 7.82515 14.8245 7.84135 16.1731 8.29436C17.5217 8.74737 18.6889 9.61357 19.505 10.767L24.9059 5.12933C23.0819 2.90554 20.6052 1.29481 17.8167 0.518735C15.0281 -0.257341 12.0647 -0.160628 9.33401 0.79557C6.60337 1.75177 4.23971 3.52046 2.56821 5.85833C0.896703 8.1962 -0.000510558 10.9884 2.17964e-07 13.8507C2.17964e-07 15.8317 0.875664 18.1991 2.17294 20.625L7.35825 15.2154Z" fill="#073A4D"/>
<path d="M20.6038 13.3398C20.8946 14.8657 20.6329 16.444 19.8646 17.7985C19.0963 19.153 17.8703 20.1973 16.4012 20.7487C14.932 21.3001 13.3134 21.3234 11.8287 20.8146C10.3439 20.3057 9.08762 19.2971 8.27967 17.9653L3.51025 22.9376C7.0587 28.6017 12.1162 34 12.9728 34.8954L14.0201 35.9999L15.0751 34.8878C16.4106 33.4968 28.0479 21.066 28.0479 13.8431C28.0506 11.5628 27.4789 9.31764 26.3844 7.31006L20.6038 13.3398Z" fill="#073A4D"/>
<path d="M18.0215 15.4435C18.5151 13.2602 17.1238 11.095 14.914 10.6073C12.7042 10.1197 10.5127 11.4943 10.0191 13.6776C9.52559 15.8609 10.9169 18.0262 13.1267 18.5138C15.3365 19.0014 17.528 17.6268 18.0215 15.4435Z" fill="#FF2D5C"/>
<path d="M35.2095 15.5716V24.9036H39.7976V15.5037C39.7976 12.9195 41.0568 11.3871 43.5712 11.3871H45.0974V6.7522H44.4507C38.4393 6.7522 35.3449 9.82833 35.2095 15.5716Z" fill="#FF2D5C"/>
<path d="M77.81 1.8269H75.5684V9.49462C74.4028 7.64743 72.6858 6.73703 70.4403 6.73703C65.648 6.90479 63.269 9.88291 63.269 15.9277C63.269 21.8406 66.0563 24.8244 71.6251 24.9262C77.2339 24.9601 80.0555 22.3081 80.0555 16.9682V4.07746C80.0526 3.48697 79.8161 2.92101 79.3965 2.50048C78.977 2.07996 78.4076 1.83822 77.81 1.8269ZM71.6918 21.1357C69.1106 21.1357 67.8763 19.3224 67.9202 15.7298C68.0556 12.305 69.3128 10.6256 71.7586 10.6256C74.2044 10.6256 75.4616 12.2993 75.5646 15.7298C75.5684 19.3224 74.2807 21.1357 71.6918 21.1357Z" fill="#FF2D5C"/>
<path d="M89.989 6.73706C84.5176 6.7691 81.7646 9.75288 81.7646 15.7185C81.7646 21.6842 84.4832 24.766 89.9203 24.9337C94.3387 24.9337 96.899 22.8792 97.8853 19.166H94.5543C94.2687 19.1579 93.9847 19.2104 93.7214 19.32C93.4581 19.4295 93.2217 19.5936 93.0281 19.8012C92.2157 20.5878 91.13 21.0381 89.9928 21.0603C87.7836 21.0603 86.5951 19.7013 86.4234 17.0172H97.9349C98.3527 10.1939 95.699 6.73706 89.989 6.73706ZM86.4883 13.8638C86.8279 11.5416 87.9859 10.3504 89.9223 10.3504C91.8586 10.3504 92.9747 11.5473 93.2513 13.8676L86.4883 13.8638Z" fill="#FF2D5C"/>
<path d="M112.68 6.74854C111.185 6.74854 110.471 7.48553 110.505 8.96328V18.3707C110.505 20.3536 109.489 21.3262 107.453 21.3262C105.417 21.3262 104.401 20.3536 104.401 18.3707V6.74854H99.8696V17.466C99.8696 20.4535 100.652 22.4006 102.216 23.3789C103.725 24.3736 105.5 24.8988 107.314 24.8868C109.175 24.9022 111.008 24.4265 112.621 23.5089C114.218 22.5363 115 20.5214 115 17.466V6.74854H112.68Z" fill="#FF2D5C"/>
<path d="M57.0289 8.96705V16.7177C57.0289 17.7431 56.9393 18.3557 56.4165 19.0606C55.8938 19.7656 55.0525 19.8636 54.1272 19.8636C53.202 19.8636 52.2557 19.6016 51.8379 19.0832C51.4201 18.5649 51.2236 17.7638 51.2236 16.7234V6.78435H46.561V17.089C46.561 22.8002 48.8656 25.37 53.4748 24.7982C54.2245 24.719 56.1724 24.4646 57.0576 24.0442V26.3872H57.0423V26.5587C57.0335 26.5862 57.0284 26.6147 57.027 26.6435C57.0231 26.7777 56.9986 26.9105 56.9545 27.0374L56.9259 27.1562L56.8954 27.2768L56.8668 27.3616L56.8515 27.4125C56.6641 27.9873 56.3147 28.4973 55.8442 28.8828C55.4042 29.257 54.8433 29.4636 54.2627 29.4652C53.8977 29.4641 53.5375 29.3835 53.2078 29.229C52.878 29.0746 52.5868 28.8502 52.3549 28.5717C51.8137 27.9671 51.5075 27.1922 51.4907 26.3853L47.2707 29.271C47.4653 30.0451 47.9741 30.9247 48.7969 31.9099C50.0548 33.3675 51.7254 34.1215 53.8086 34.1717H54.5832C55.5437 34.1669 56.4933 33.9694 57.3742 33.5912C58.2997 33.2267 59.1261 32.6535 59.7876 31.9174C61.0734 30.3907 61.7157 28.5686 61.7144 26.4512V6.74854H59.2038C57.71 6.74854 56.9965 7.48553 57.0289 8.96705Z" fill="#FF2D5C"/>
</svg>
