<svg width="68" height="13" viewBox="0 0 68 13" fill="none" xmlns="http://www.w3.org/2000/svg">
<path d="M5.908 10.168C4.89067 10.168 3.97133 9.94867 3.15 9.51C2.338 9.07133 1.69867 8.46933 1.232 7.704C0.774667 6.92933 0.546 6.06133 0.546 5.1C0.546 4.13867 0.774667 3.27533 1.232 2.51C1.69867 1.73533 2.338 1.12867 3.15 0.69C3.97133 0.251333 4.89067 0.0319998 5.908 0.0319998C6.92533 0.0319998 7.84 0.251333 8.652 0.69C9.464 1.12867 10.1033 1.73533 10.57 2.51C11.0367 3.27533 11.27 4.13867 11.27 5.1C11.27 6.06133 11.0367 6.92933 10.57 7.704C10.1033 8.46933 9.464 9.07133 8.652 9.51C7.84 9.94867 6.92533 10.168 5.908 10.168ZM5.908 8.236C6.48667 8.236 7.00933 8.10533 7.476 7.844C7.94267 7.57333 8.30667 7.2 8.568 6.724C8.83867 6.248 8.974 5.70667 8.974 5.1C8.974 4.49333 8.83867 3.952 8.568 3.476C8.30667 3 7.94267 2.63133 7.476 2.37C7.00933 2.09933 6.48667 1.964 5.908 1.964C5.32933 1.964 4.80667 2.09933 4.34 2.37C3.87333 2.63133 3.50467 3 3.234 3.476C2.97267 3.952 2.842 4.49333 2.842 5.1C2.842 5.70667 2.97267 6.248 3.234 6.724C3.50467 7.2 3.87333 7.57333 4.34 7.844C4.80667 8.10533 5.32933 8.236 5.908 8.236ZM17.9585 2.356C18.8918 2.356 19.6432 2.636 20.2125 3.196C20.7912 3.756 21.0805 4.58667 21.0805 5.688V10H18.8965V6.024C18.8965 5.42667 18.7658 4.98333 18.5045 4.694C18.2432 4.39533 17.8652 4.246 17.3705 4.246C16.8198 4.246 16.3812 4.41867 16.0545 4.764C15.7278 5.1 15.5645 5.604 15.5645 6.276V10H13.3805V2.468H15.4665V3.35C15.7558 3.03267 16.1152 2.79 16.5445 2.622C16.9738 2.44467 17.4452 2.356 17.9585 2.356ZM31.0802 6.262C31.0802 6.29 31.0662 6.486 31.0382 6.85H25.3402C25.4429 7.31667 25.6856 7.68533 26.0682 7.956C26.4509 8.22667 26.9269 8.362 27.4962 8.362C27.8882 8.362 28.2336 8.306 28.5322 8.194C28.8402 8.07267 29.1249 7.886 29.3862 7.634L30.5482 8.894C29.8389 9.706 28.8029 10.112 27.4402 10.112C26.5909 10.112 25.8396 9.94867 25.1862 9.622C24.5329 9.286 24.0289 8.824 23.6742 8.236C23.3196 7.648 23.1422 6.98067 23.1422 6.234C23.1422 5.49667 23.3149 4.834 23.6602 4.246C24.0149 3.64867 24.4956 3.18667 25.1022 2.86C25.7182 2.524 26.4042 2.356 27.1602 2.356C27.8976 2.356 28.5649 2.51467 29.1622 2.832C29.7596 3.14933 30.2262 3.60667 30.5622 4.204C30.9076 4.792 31.0802 5.478 31.0802 6.262ZM27.1742 4.008C26.6796 4.008 26.2642 4.148 25.9282 4.428C25.5922 4.708 25.3869 5.09067 25.3122 5.576H29.0222C28.9476 5.1 28.7422 4.722 28.4062 4.442C28.0702 4.15267 27.6596 4.008 27.1742 4.008ZM49.7151 2.468L46.9851 10H44.8851L43.1911 5.324L41.4411 10H39.3411L36.6251 2.468H38.6831L40.4611 7.564L42.3091 2.468H44.1571L45.9491 7.564L47.7831 2.468H49.7151ZM54.0823 2.356C55.249 2.356 56.145 2.636 56.7703 3.196C57.3957 3.74667 57.7083 4.582 57.7083 5.702V10H55.6643V9.062C55.2537 9.762 54.4883 10.112 53.3683 10.112C52.7897 10.112 52.2857 10.014 51.8563 9.818C51.4363 9.622 51.1143 9.35133 50.8903 9.006C50.6663 8.66067 50.5543 8.26867 50.5543 7.83C50.5543 7.13 50.8157 6.57933 51.3383 6.178C51.8703 5.77667 52.687 5.576 53.7883 5.576H55.5243C55.5243 5.1 55.3797 4.736 55.0903 4.484C54.801 4.22267 54.367 4.092 53.7883 4.092C53.387 4.092 52.9903 4.15733 52.5983 4.288C52.2157 4.40933 51.889 4.57733 51.6183 4.792L50.8343 3.266C51.245 2.97667 51.735 2.75267 52.3043 2.594C52.883 2.43533 53.4757 2.356 54.0823 2.356ZM53.9143 8.642C54.2877 8.642 54.619 8.558 54.9083 8.39C55.1977 8.21267 55.403 7.956 55.5243 7.62V6.85H54.0263C53.1303 6.85 52.6823 7.144 52.6823 7.732C52.6823 8.012 52.7897 8.236 53.0043 8.404C53.2283 8.56267 53.5317 8.642 53.9143 8.642ZM67.5842 2.468L64.1822 10.462C63.8369 11.33 63.4076 11.9413 62.8942 12.296C62.3902 12.6507 61.7789 12.828 61.0602 12.828C60.6682 12.828 60.2809 12.7673 59.8982 12.646C59.5156 12.5247 59.2029 12.3567 58.9602 12.142L59.7582 10.588C59.9262 10.7373 60.1176 10.854 60.3322 10.938C60.5562 11.022 60.7756 11.064 60.9902 11.064C61.2889 11.064 61.5316 10.9893 61.7182 10.84C61.9049 10.7 62.0729 10.462 62.2222 10.126L62.2502 10.056L58.9882 2.468H61.2422L63.3562 7.578L65.4842 2.468H67.5842Z" fill="#FF2D5C"/>
</svg>
