<svg width="21" height="20" viewBox="0 0 21 20" fill="none" xmlns="http://www.w3.org/2000/svg">
<path d="M19.1719 16.3906C17.1719 15.3398 15.6406 14.7539 14.2852 14.5234L14.4336 14.3203C14.4922 14.2422 14.5117 14.1406 14.4883 14.043L14.1797 12.8047C15.0078 11.6367 15.5 10.1758 15.5 8.78905V6.73436L15.5039 6.73045C15.7773 6.49998 15.9727 6.20311 16.0781 5.87108L15.7383 5.77733L13.9922 5.46873C11.418 5.00389 8.84765 5.00389 6.34765 5.46873L4.5664 5.78123L4.25391 5.85936C4.35937 6.1953 4.55469 6.49608 4.83203 6.72655L4.83594 6.73045V8.78514C4.83594 10.1719 5.32812 11.6289 6.15625 12.8008L5.84765 14.039C5.82422 14.1328 5.84375 14.2383 5.90234 14.3164L6.05078 14.5195C4.6914 14.75 3.16406 15.3359 1.16406 16.3867C0.554687 16.707 0.171875 17.3359 0.171875 18.0273V19.4531C0.171875 19.6367 0.320312 19.7851 0.503906 19.7851H19.8359C20.0195 19.7851 20.168 19.6367 20.168 19.4531V18.0273C20.1641 17.3398 19.7852 16.7109 19.1719 16.3906ZM8.76172 17.125L6.52734 14.0508L6.67578 13.4531L6.67969 13.457C7.48437 14.332 8.50781 14.9492 9.66406 15.0898C9.66406 15.0898 9.66406 15.0898 9.66797 15.0898L8.76172 17.125ZM7.45703 13.289C7.375 13.2109 7.28906 13.1328 7.20703 13.0508C7.20703 13.0508 7.20703 13.0508 7.20312 13.0469C7.08203 12.918 6.96094 12.7773 6.84765 12.6328C6.83594 12.6211 6.82422 12.6133 6.8125 12.6015C6.02734 11.6094 5.49609 10.289 5.49609 8.78905V7.08983C5.5039 7.09373 5.51172 7.09373 5.51953 7.09373C5.55078 7.10155 5.58203 7.10936 5.61328 7.11717C5.64844 7.12498 5.6875 7.1328 5.72265 7.14061C5.7539 7.14452 5.78906 7.14842 5.82422 7.15233C5.85937 7.15623 5.89453 7.16014 5.92969 7.16405C5.97265 7.16795 6.01562 7.16405 6.05859 7.16405C6.08203 7.16405 6.10937 7.16405 6.13281 7.16405C6.20312 7.16014 6.27344 7.15233 6.34375 7.14061C8.84375 6.67967 11.4141 6.67967 13.9883 7.14061C14.0859 7.15623 14.1836 7.16405 14.2812 7.16795C14.293 7.16795 14.3008 7.17186 14.3125 7.17186C14.3242 7.17186 14.332 7.16795 14.3437 7.16795C14.5117 7.16405 14.6758 7.14452 14.832 7.09764V8.79686C14.832 10.2969 14.3008 11.6172 13.5156 12.6094C13.5039 12.6211 13.4883 12.6289 13.4805 12.6406C13.3672 12.7851 13.2461 12.9258 13.125 13.0547L13.1211 13.0586C13.0391 13.1445 12.957 13.2187 12.875 13.2969C12.0586 14.0312 11.0937 14.4609 10.168 14.4609C9.23828 14.457 8.27344 14.0234 7.45703 13.289ZM11.5664 17.125L10.6602 15.0898C10.6602 15.0898 10.6602 15.0898 10.6641 15.0898C11.8203 14.9492 12.8437 14.332 13.6484 13.457L13.6523 13.4531L13.8008 14.0508L11.5664 17.125Z" fill="white"/>
<path d="M6.22638 4.8125C8.80059 4.33594 11.4529 4.33594 14.1053 4.8125L15.8826 5.125L16.16 5.19922C16.1014 2.75781 14.1014 0.785156 11.6443 0.785156H8.68731C6.23419 0.785156 4.23419 2.75 4.17169 5.19141L4.42559 5.12891L6.22638 4.8125ZM9.16387 2.12109C9.16387 1.9375 9.31231 1.78906 9.4959 1.78906H10.8279C11.0115 1.78906 11.16 1.9375 11.16 2.12109V3.78906C11.16 3.97266 11.0115 4.12109 10.8279 4.12109H9.4959C9.31231 4.12109 9.16387 3.97266 9.16387 3.78906V2.12109Z" fill="white"/>
<path d="M10.5 2.45699H9.832V3.45699H10.5V2.45699Z" fill="white"/>
</svg>
